<svg xmlns="http://www.w3.org/2000/svg" width="500" height="500" viewBox="0 0 500 500">
<g>
<path d="M 292.36 355.17 C292.69,358.33 292.57,361.15 292.08,361.45 C290.65,362.33 290.00,359.27 290.00,351.59 C290.00,345.73 290.64,342.71 293.37,335.77 C298.37,323.04 306.30,309.18 320.54,288.34 C334.92,267.30 340.98,258.16 343.95,253.00 C348.23,245.57 356.00,229.54 356.00,228.13 C356.00,227.51 356.90,227.00 358.00,227.00 C359.10,227.00 360.00,227.26 360.00,227.59 C360.00,228.86 348.04,250.96 343.03,258.95 C340.12,263.60 330.90,277.55 322.55,289.95 C298.31,325.97 290.97,341.83 292.36,355.17 ZM 213.64 333.25 C214.25,336.94 212.83,338.60 211.66,335.56 C208.65,327.72 208.15,264.42 211.04,258.54 C212.99,254.58 214.84,254.03 246.00,248.08 C277.11,242.14 282.93,241.28 281.48,242.84 C280.63,243.76 271.05,245.75 227.50,254.03 C211.40,257.09 212.02,256.02 211.30,282.08 C210.79,300.46 211.77,321.87 213.64,333.25 ZM 320.70 402.88 C323.54,407.62 324.79,410.61 324.17,411.23 C323.55,411.85 321.68,409.56 318.96,404.85 C316.63,400.81 313.89,396.28 312.86,394.79 C311.84,393.30 311.00,391.77 311.00,391.40 C311.00,391.02 309.27,387.97 307.15,384.61 C301.22,375.21 298.74,370.00 300.23,370.02 C300.93,370.03 304.82,375.77 308.89,382.77 C312.95,389.77 318.27,398.82 320.70,402.88 ZM 298.95 238.25 C295.67,244.71 292.54,250.00 291.99,250.00 C291.45,250.00 291.01,249.66 291.01,249.25 C291.05,247.62 301.03,227.81 303.99,223.52 C307.49,218.43 310.35,218.25 307.00,223.34 C305.85,225.08 302.23,231.79 298.95,238.25 ZM 361.27 222.25 C360.99,223.21 360.40,224.00 359.94,224.00 C358.54,224.00 357.78,221.98 358.71,220.71 C359.76,219.26 361.58,213.74 362.50,209.25 C362.86,207.46 363.77,206.00 364.52,206.00 C365.85,206.00 365.69,206.79 361.27,222.25 Z" fill="rgb(21,46,79)"/>
<path d="M 293.75 491.86 C286.75,495.79 280.13,499.00 279.06,499.00 C277.07,499.00 274.00,495.55 274.00,493.31 C274.00,492.63 277.09,488.57 280.86,484.28 C292.31,471.30 297.19,462.34 298.49,451.94 L 299.18 446.42 L 315.61 435.96 C324.65,430.21 332.69,425.06 333.49,424.52 C335.28,423.32 336.70,425.06 341.04,433.79 C344.28,440.31 348.00,451.95 348.00,455.57 C348.00,457.16 345.59,459.02 337.79,463.47 C327.59,469.29 327.58,469.30 324.63,467.60 C321.19,465.63 320.05,466.59 320.00,471.50 C319.98,473.15 319.64,474.98 319.23,475.58 C317.96,477.43 306.98,484.45 293.75,491.86 ZM 172.85 400.55 C164.24,403.00 156.97,405.00 156.71,405.00 C156.44,405.00 155.17,404.15 153.88,403.10 C150.20,400.12 152.12,396.57 160.50,390.87 C175.76,380.49 184.43,370.39 187.13,359.86 C188.00,356.47 189.12,354.47 190.47,353.91 C192.70,352.98 228.96,348.62 229.55,349.22 C231.02,350.69 233.00,363.02 233.00,370.73 C233.00,371.51 233.01,372.23 233.01,372.89 C233.04,376.28 233.06,378.21 232.18,379.54 C230.86,381.55 227.52,382.22 219.17,384.57 L 209.83 387.19 L 207.42 384.92 C204.65,382.32 204.64,382.32 201.71,388.07 C199.17,393.02 198.86,393.15 172.85,400.55 ZM 362.76 85.30 C360.74,89.54 358.74,92.97 358.30,92.93 C357.86,92.90 356.49,92.38 355.25,91.78 C352.01,90.22 352.35,86.54 356.00,83.84 C360.22,80.72 360.10,77.23 355.75,76.81 C352.68,76.52 352.52,76.30 352.78,72.88 C353.00,69.97 352.57,68.95 350.60,67.66 C349.25,66.77 347.58,64.48 346.89,62.56 L 345.62 59.07 L 342.33 61.10 C337.26,64.24 333.90,63.35 331.53,58.25 C330.44,55.91 328.98,54.00 328.28,54.00 C327.57,54.00 327.07,54.34 327.16,54.75 C327.25,55.16 326.86,56.62 326.29,58.00 C325.71,59.38 324.67,63.09 323.96,66.25 C323.26,69.41 322.42,71.99 322.09,71.98 C321.77,71.97 320.43,71.13 319.13,70.13 L 316.75 68.30 L 319.98 61.54 C323.86,53.40 328.99,47.47 333.32,46.11 C338.01,44.63 348.91,45.35 353.26,47.44 C361.10,51.19 366.35,60.64 366.39,71.05 C366.41,76.55 365.82,78.84 362.76,85.30 ZM 326.96 156.41 C319.39,160.40 314.00,162.11 314.00,160.51 C314.00,160.24 317.26,158.39 321.25,156.40 C336.30,148.86 351.81,136.28 350.44,132.71 C349.86,131.19 352.36,128.60 353.88,129.16 C355.33,129.68 352.66,136.42 349.51,140.19 C345.49,145.00 336.92,151.16 326.96,156.41 ZM 168.74 63.40 C169.53,67.57 167.13,66.47 165.12,61.75 C161.48,53.19 161.55,52.40 166.03,50.61 C171.22,48.53 172.71,48.58 173.94,50.89 C174.72,52.34 174.49,53.38 172.97,55.31 L 170.98 57.84 L 174.49 59.00 C178.44,60.30 179.63,63.70 175.75,62.59 C168.69,60.58 168.21,60.64 168.74,63.40 ZM 169.43 42.02 C166.01,43.33 163.65,43.25 162.20,41.80 C160.88,40.48 160.48,24.44 161.75,23.66 C162.16,23.41 165.14,22.87 168.38,22.47 C173.16,21.87 174.17,22.00 173.79,23.12 C173.54,23.88 171.23,24.89 168.67,25.36 C165.06,26.02 164.00,26.65 164.00,28.11 C164.00,29.60 164.73,30.00 167.50,30.00 C169.82,30.00 171.00,30.47 171.00,31.39 C171.00,32.92 168.90,34.00 165.92,34.00 C164.54,34.00 164.00,34.70 164.00,36.50 C164.00,38.75 164.40,39.00 168.00,39.00 C172.53,39.00 173.27,40.57 169.43,42.02 ZM 193.00 60.64 C193.00,62.00 191.74,62.13 187.00,61.28 C183.03,60.57 182.71,59.62 183.98,52.09 C185.09,45.55 185.37,45.00 187.64,45.00 C190.64,45.00 196.00,47.65 196.00,49.13 C196.00,50.16 193.41,49.86 189.59,48.40 C188.57,48.00 188.00,48.33 188.00,49.30 C188.00,50.13 189.35,51.27 191.00,51.85 C195.11,53.28 194.77,54.82 190.25,55.19 C185.79,55.56 185.63,57.15 189.92,58.39 C191.62,58.89 193.00,59.90 193.00,60.64 ZM 136.00 42.92 C136.00,43.85 135.36,45.49 134.57,46.56 C132.16,49.84 131.87,46.37 133.77,37.00 C135.19,30.01 135.83,28.50 137.35,28.50 C138.72,28.50 139.85,30.19 141.60,34.87 C144.14,41.62 144.62,45.00 143.04,45.00 C142.50,45.00 141.54,43.99 140.90,42.75 C139.99,41.01 139.67,40.32 139.19,40.19 C138.89,40.10 138.52,40.24 137.89,40.49 C137.81,40.52 137.73,40.55 137.64,40.58 C136.74,40.93 136.00,41.98 136.00,42.92 ZM 151.37 39.00 C150.69,39.00 149.99,40.43 149.81,42.17 C149.24,47.96 147.13,43.04 146.40,34.20 C145.79,26.98 145.91,26.00 147.36,26.00 C148.46,26.00 149.00,26.85 149.00,28.57 L 149.00 31.15 L 151.63 29.07 C154.23,27.03 157.00,26.33 157.00,27.70 C157.00,28.09 155.60,29.85 153.88,31.62 L 150.76 34.84 L 154.88 36.94 C157.15,38.10 159.00,39.71 159.00,40.52 C159.00,42.39 157.07,42.37 154.56,40.47 C153.49,39.66 152.06,39.00 151.37,39.00 ZM 220.00 121.99 C220.00,125.38 215.12,120.82 212.47,114.94 C210.46,110.48 211.07,108.85 213.82,111.34 C215.73,113.06 219.00,113.60 219.00,112.19 C219.00,111.75 218.34,110.51 217.53,109.44 C215.69,107.01 215.59,105.00 217.32,105.00 C218.60,105.00 227.00,117.20 227.00,119.06 C227.00,121.04 223.90,119.88 222.82,117.50 C221.56,114.74 221.19,114.59 219.00,115.98 C217.76,116.77 217.72,117.29 218.75,118.96 C219.44,120.07 220.00,121.43 220.00,121.99 ZM 163.00 131.61 C163.00,132.37 162.21,132.95 161.25,132.89 C158.12,132.70 154.00,130.65 154.00,129.28 C154.00,127.80 159.76,116.00 160.48,116.00 C162.29,116.00 168.00,119.65 168.00,120.80 C168.00,122.21 166.70,122.13 162.75,120.51 C161.54,120.01 161.00,120.25 161.00,121.28 C161.00,122.11 162.12,123.07 163.50,123.41 C164.88,123.76 166.00,124.71 166.00,125.53 C166.00,126.71 165.17,126.89 162.00,126.38 C158.73,125.86 158.00,126.04 158.00,127.35 C158.00,128.24 159.12,129.24 160.50,129.59 C161.88,129.93 163.00,130.84 163.00,131.61 ZM 187.21 134.00 C187.54,135.42 185.73,136.39 184.69,135.35 C184.31,134.98 184.00,132.53 184.00,129.91 C184.00,125.35 184.15,125.11 187.54,123.99 C192.22,122.44 194.35,123.94 192.91,127.74 C191.96,130.22 192.91,131.94 195.25,131.98 C195.66,131.99 196.00,132.73 196.00,133.62 C196.00,134.83 195.44,135.06 193.75,134.54 C188.42,132.88 186.92,132.76 187.21,134.00 ZM 124.50 41.13 C124.50,45.56 124.07,48.47 123.38,48.70 C121.90,49.20 121.03,45.73 121.01,39.32 C121.00,34.52 120.81,34.11 118.47,33.82 C117.08,33.64 115.96,33.05 115.99,32.50 C116.05,31.33 118.90,30.48 125.94,29.51 C130.19,28.92 131.00,29.07 131.00,30.41 C131.00,31.28 130.21,32.01 129.25,32.02 C125.35,32.05 124.50,33.67 124.50,41.13 ZM 155.00 70.00 C155.00,74.03 152.44,73.94 151.62,69.88 C150.69,65.20 150.87,57.20 151.93,56.54 C153.32,55.68 162.45,67.95 161.28,69.12 C160.66,69.74 159.86,69.53 159.04,68.54 C156.92,66.00 155.00,66.69 155.00,70.00 ZM 179.46 129.85 C180.89,135.25 180.19,137.05 177.65,134.51 C175.83,132.69 173.63,132.59 171.03,134.21 C167.87,136.19 167.58,134.39 170.32,129.72 C175.33,121.17 177.18,121.19 179.46,129.85 ZM 149.00 80.50 C149.00,81.58 147.90,82.00 145.07,82.00 C138.04,82.00 134.59,74.33 139.07,68.63 C140.21,67.19 142.01,66.00 143.07,66.00 C145.63,66.00 145.50,66.80 142.50,69.59 C138.13,73.64 140.16,79.00 146.07,79.00 C148.01,79.00 149.00,79.51 149.00,80.50 ZM 206.57 124.96 C208.56,128.61 209.04,130.36 208.27,131.13 C207.12,132.28 205.33,130.14 202.93,124.79 C202.12,122.99 201.04,122.15 199.72,122.29 C195.99,122.68 196.92,120.32 201.42,117.94 C205.91,115.55 209.11,115.99 205.65,118.51 C203.88,119.81 203.91,120.07 206.57,124.96 ZM 316.32 119.75 C312.51,122.09 308.55,124.00 307.53,124.00 C307.44,124.00 307.35,124.00 307.27,124.00 C306.69,124.00 306.27,124.01 306.20,123.85 C306.03,123.47 308.04,122.12 315.07,117.39 L 316.29 116.57 C325.58,110.31 329.65,108.56 328.76,111.21 C328.54,111.87 327.22,113.11 325.81,113.96 C324.41,114.81 320.14,117.41 316.32,119.75 ZM 359.00 182.60 C350.42,184.16 344.64,184.39 345.41,183.15 C345.70,182.68 348.54,182.00 351.72,181.63 C354.90,181.27 359.98,180.10 363.00,179.02 C369.11,176.85 373.49,176.40 372.46,178.06 C371.46,179.68 367.27,181.09 359.00,182.60 ZM 166.24 54.75 C165.68,56.45 167.21,56.32 169.56,54.47 C171.44,52.99 171.42,52.95 169.08,53.22 C167.75,53.37 166.47,54.06 166.24,54.75 Z" fill="rgb(34,33,34)"/>
<path d="M 298.95 238.25 C299.50,237.16 300.06,236.07 300.62,235.00 C299.27,237.86 298.44,240.00 298.83,240.00 C300.10,240.00 303.00,236.54 303.00,235.03 C303.00,234.31 304.80,231.77 307.00,229.38 C311.14,224.89 312.30,220.22 309.75,218.31 C308.61,217.46 307.84,217.39 304.33,217.85 C303.69,217.93 302.87,219.32 302.52,220.93 C302.16,222.54 300.78,224.57 299.44,225.45 C298.10,226.33 297.00,227.98 297.00,229.12 C297.00,230.37 296.18,231.40 294.93,231.73 C293.14,232.20 292.96,232.78 293.52,236.13 C293.95,238.68 293.80,240.00 293.07,240.00 C292.46,240.00 291.22,241.56 290.31,243.47 C289.35,245.49 287.28,247.59 285.33,248.51 C283.50,249.38 282.00,250.41 282.00,250.80 C281.99,251.18 278.73,251.45 274.75,251.39 C264.08,251.22 264.00,251.20 264.00,249.00 C264.00,248.07 263.76,247.30 263.43,247.10 C276.99,244.41 280.95,243.42 281.48,242.84 C281.54,242.77 281.59,242.71 281.62,242.66 C281.66,243.22 279.65,244.20 275.93,244.99 C271.56,245.93 271.57,245.93 277.00,245.41 C283.51,244.78 285.09,243.66 282.75,241.32 C280.98,239.55 276.94,239.97 260.16,243.63 C256.68,244.39 253.40,244.75 252.88,244.42 C251.79,243.75 241.99,245.95 240.55,247.18 C240.03,247.63 237.24,248.00 234.36,248.00 C231.48,248.00 228.84,248.45 228.50,249.00 C228.16,249.55 224.95,250.00 221.36,250.00 C215.54,250.00 214.55,250.30 212.00,252.84 C207.34,257.50 206.76,261.87 206.80,292.00 C206.82,307.12 207.14,321.08 207.53,323.00 C207.91,324.92 208.44,328.41 208.71,330.74 C209.23,335.21 209.19,335.24 203.78,336.43 C202.28,336.76 200.54,337.58 199.90,338.26 C198.58,339.68 189.19,339.36 187.32,337.83 C186.53,337.19 185.26,337.44 183.52,338.58 C179.84,340.99 178.51,339.40 179.98,334.37 C181.04,330.72 180.88,271.20 179.75,251.11 C179.38,244.43 179.62,243.22 182.25,238.35 C185.30,232.72 187.53,231.07 195.00,228.93 C197.48,228.21 200.39,227.04 201.47,226.32 C202.56,225.59 204.47,225.00 205.72,225.00 C206.98,225.00 208.00,224.55 208.00,224.00 C208.00,223.45 209.96,223.00 212.37,223.00 C215.22,223.00 217.61,222.31 219.27,221.00 C220.93,219.70 223.33,219.00 226.16,219.00 C228.83,219.00 232.81,217.92 236.50,216.19 C239.80,214.64 244.48,213.27 246.90,213.14 C249.32,213.01 252.24,212.25 253.37,211.45 C254.51,210.65 256.54,210.00 257.87,210.00 C259.92,210.00 264.89,208.02 273.24,203.86 C274.19,203.39 276.23,203.00 277.76,203.00 C279.30,203.00 281.65,202.23 282.99,201.29 C284.34,200.35 286.82,199.71 288.55,199.86 C292.37,200.18 301.65,194.74 302.59,191.62 C302.94,190.45 304.16,188.49 305.29,187.25 C307.20,185.17 307.52,185.11 309.67,186.52 C311.03,187.41 312.98,187.79 314.38,187.44 C316.17,186.99 317.19,187.43 318.43,189.17 C319.96,191.32 320.17,191.36 321.10,189.75 C322.38,187.51 324.13,187.53 327.12,189.85 C329.92,192.02 338.41,193.38 340.88,192.06 C341.83,191.55 343.19,191.50 343.91,191.94 C345.55,192.96 344.41,197.00 342.49,197.00 C340.06,197.00 339.89,198.81 341.97,202.69 C343.09,204.77 344.00,207.88 344.00,209.60 C344.00,211.32 344.84,213.80 345.86,215.12 C346.89,216.43 348.05,218.53 348.44,219.78 C348.83,221.04 350.23,223.22 351.54,224.64 C353.81,227.09 353.86,227.40 352.47,230.73 C350.83,234.65 350.52,238.42 351.90,237.56 C351.92,237.55 351.94,237.53 351.96,237.51 C351.01,239.50 349.96,241.62 348.90,243.71 C348.77,243.31 348.13,243.39 347.01,243.99 C345.92,244.58 344.74,246.18 344.40,247.56 C344.05,248.93 342.92,250.51 341.88,251.06 C340.85,251.62 340.00,252.70 340.00,253.46 C340.00,254.23 339.30,255.56 338.44,256.42 C335.49,259.37 329.84,268.45 328.45,272.46 C327.69,274.67 326.60,276.63 326.03,276.82 C325.47,277.01 325.00,277.80 325.00,278.58 C325.00,279.36 325.34,279.99 325.75,279.99 C326.02,279.98 327.67,277.79 329.89,274.61 C327.43,278.24 324.59,282.42 321.30,287.23 C324.14,282.76 324.58,281.40 323.46,281.17 C320.79,280.60 319.00,281.83 318.99,284.22 C318.99,285.47 317.88,288.30 316.53,290.50 C315.17,292.70 314.05,294.84 314.03,295.25 C313.97,296.82 315.04,296.15 317.16,293.33 C314.37,297.50 311.85,301.37 309.56,305.01 C311.06,302.52 312.02,300.69 311.87,300.53 C311.66,300.33 309.16,302.75 306.32,305.92 C301.94,310.80 296.00,321.88 296.00,325.17 C296.00,327.38 297.78,325.46 300.41,320.42 C302.01,317.36 305.31,311.75 307.76,307.92 C301.58,317.97 297.27,326.23 294.08,333.99 C295.16,331.08 296.00,328.70 296.00,328.58 C296.00,328.44 294.99,328.41 293.75,328.50 C291.85,328.65 291.48,329.28 291.40,332.59 C291.34,334.74 290.94,337.85 290.52,339.50 C289.49,343.49 290.77,342.04 292.62,337.71 C290.52,343.33 290.00,346.31 290.00,351.59 C290.00,356.32 290.25,359.31 290.77,360.69 C290.31,359.78 290.00,358.23 290.00,356.42 C290.00,355.09 289.60,354.00 289.12,354.00 C287.75,354.00 287.09,359.12 288.12,361.80 C288.88,363.81 289.48,364.10 291.76,363.52 C295.37,362.62 297.00,361.17 297.00,358.88 C297.00,357.67 296.29,357.00 295.00,357.00 C293.30,357.00 293.00,356.33 293.00,352.61 C293.00,349.43 293.46,348.04 294.67,347.57 C296.34,346.93 297.96,348.45 297.98,350.68 C297.99,351.33 298.70,352.56 299.55,353.41 C300.41,354.27 301.30,355.98 301.54,357.22 C301.78,358.46 302.81,360.61 303.83,361.99 C304.85,363.37 306.44,365.95 307.36,367.73 C308.28,369.51 310.39,371.67 312.05,372.53 C313.71,373.38 314.78,374.55 314.43,375.12 C313.26,377.01 319.22,388.43 324.59,394.59 C328.59,399.19 329.76,401.22 329.33,402.86 C328.92,404.43 329.50,405.60 331.44,407.13 L 334.13 409.24 L 330.81 411.24 C328.99,412.34 327.14,413.86 326.70,414.62 C326.26,415.38 325.24,416.00 324.43,416.00 C320.36,416.00 315.25,418.54 314.10,421.15 C313.42,422.66 311.89,424.17 310.69,424.49 C309.48,424.81 306.70,425.54 304.50,426.11 C298.64,427.64 292.03,431.07 290.91,433.17 C290.37,434.18 289.52,435.00 289.02,435.00 C288.15,435.00 287.60,434.35 285.50,430.81 C279.53,420.74 278.11,417.74 277.10,413.02 C276.45,410.01 275.01,406.58 273.90,405.39 C272.78,404.20 271.19,400.59 270.35,397.37 C269.51,394.14 268.23,390.83 267.51,390.00 C265.63,387.85 263.00,381.15 263.00,378.51 C263.00,377.28 262.08,375.10 260.95,373.66 C257.15,368.84 252.93,358.03 252.33,351.62 C251.85,346.45 252.21,344.02 254.46,337.44 C255.95,333.07 257.75,328.59 258.46,327.48 C259.17,326.36 260.78,322.99 262.04,319.98 C263.30,316.96 264.97,313.75 265.75,312.83 C266.52,311.92 267.28,310.12 267.43,308.83 C267.59,307.55 268.67,304.92 269.84,303.00 C271.02,301.08 272.46,298.38 273.06,297.00 C273.65,295.63 274.80,293.77 275.62,292.87 C276.43,291.97 277.26,288.90 277.45,286.04 C277.69,282.49 278.47,280.13 279.90,278.60 C281.06,277.38 282.00,275.46 282.00,274.34 C282.00,273.22 282.90,271.27 284.00,270.00 C285.10,268.73 286.00,266.92 286.00,265.97 C286.00,265.02 286.67,263.68 287.50,263.00 C288.33,262.32 289.00,260.99 289.00,260.06 C289.00,259.13 290.35,257.08 292.00,255.50 C293.71,253.87 295.00,251.59 295.00,250.22 C295.00,248.65 295.70,247.63 297.00,247.29 C299.05,246.75 299.58,244.47 298.18,242.26 C297.65,241.42 296.67,242.50 295.21,245.51 C294.25,247.48 293.18,248.99 292.36,249.71 C293.40,248.52 296.12,243.82 298.95,238.25 ZM 213.64 333.25 C213.03,329.52 212.51,324.70 212.11,319.27 C212.44,322.75 212.72,322.69 213.21,320.50 C213.70,318.30 213.86,313.12 213.56,309.00 C213.27,304.88 213.13,297.45 213.26,292.50 C213.39,287.55 213.48,279.59 213.45,274.82 C213.43,270.04 213.73,266.33 214.13,266.58 C214.53,266.83 215.14,266.12 215.50,265.01 C216.77,260.99 221.05,257.00 224.09,257.00 C225.69,257.00 227.00,256.55 227.00,256.00 C227.00,255.45 228.24,254.98 229.75,254.96 C231.26,254.95 233.62,254.25 235.00,253.42 C236.09,252.77 236.64,252.41 236.68,252.28 C239.26,251.79 241.70,251.32 244.00,250.88 C240.85,251.64 241.15,251.90 243.50,252.18 C245.70,252.44 250.43,252.11 254.00,251.43 C257.58,250.75 260.73,250.42 261.00,250.69 C261.27,250.95 260.38,252.08 259.00,253.20 C256.96,254.85 255.60,255.11 251.57,254.64 C248.86,254.31 246.16,254.44 245.57,254.91 C244.53,255.75 242.44,256.13 231.00,257.56 C227.98,257.94 224.99,258.65 224.37,259.15 C223.76,259.64 222.71,262.17 222.04,264.77 C221.38,267.37 220.41,270.55 219.90,271.83 C218.91,274.32 220.61,282.00 222.16,282.00 C222.62,282.00 223.00,284.95 223.00,288.55 C223.00,292.25 223.62,296.29 224.42,297.84 C225.20,299.35 226.36,303.94 227.00,308.04 C228.21,315.76 228.23,316.07 227.98,323.41 C227.90,325.84 228.30,328.70 228.88,329.77 C229.96,331.79 231.02,337.29 231.32,342.50 C231.49,345.33 231.24,345.54 227.00,346.16 C224.52,346.52 220.64,347.30 218.37,347.88 C216.10,348.47 210.70,349.15 206.37,349.39 C202.04,349.63 196.70,350.31 194.50,350.89 C192.30,351.47 190.01,351.96 189.41,351.98 C187.99,352.01 185.99,347.61 186.84,346.33 C187.23,345.74 193.74,345.40 202.96,345.48 C216.17,345.60 218.98,345.35 222.27,343.75 C226.66,341.64 227.03,338.71 222.99,338.16 C219.62,337.70 216.00,334.17 216.00,331.33 C216.00,330.05 215.58,329.00 215.07,329.00 C214.56,329.00 213.91,327.99 213.63,326.75 C213.35,325.51 213.34,327.31 213.61,330.75 C213.70,331.87 213.73,332.86 213.71,333.72 C213.69,333.57 213.67,333.41 213.64,333.25 ZM 192.68 114.83 C189.81,117.53 189.20,117.50 185.59,114.55 C183.99,113.24 181.86,112.33 180.84,112.53 C179.56,112.78 179.00,112.29 179.00,110.92 C179.00,109.80 177.93,108.47 176.50,107.82 C175.12,107.19 174.00,106.33 174.00,105.90 C174.00,105.47 173.10,105.29 172.01,105.50 C170.65,105.76 169.20,104.81 167.48,102.57 C165.63,100.14 163.88,99.08 160.98,98.61 C156.81,97.95 155.68,95.72 158.22,93.18 C159.19,92.21 159.18,91.52 158.19,89.93 C156.41,87.09 157.61,85.84 161.42,86.55 C163.72,86.98 165.16,86.69 166.27,85.58 C168.44,83.42 169.72,83.60 171.11,86.25 C171.76,87.49 173.56,89.95 175.10,91.73 C176.64,93.50 178.20,96.53 178.56,98.44 C178.91,100.36 179.81,102.43 180.54,103.04 C182.34,104.53 187.13,103.86 187.99,102.00 C188.38,101.18 189.21,99.49 189.84,98.26 C191.40,95.25 191.28,90.38 189.51,85.31 C188.26,81.71 188.25,80.66 189.44,77.79 C190.21,75.96 191.77,73.61 192.92,72.57 C194.93,70.75 195.07,70.75 197.00,72.50 C198.10,73.50 199.00,75.09 199.00,76.04 C199.00,76.99 198.10,78.00 197.00,78.29 C194.26,79.01 194.47,82.21 197.50,85.82 C198.88,87.45 200.00,89.12 200.00,89.53 C200.00,89.94 198.65,92.47 197.00,95.15 C195.35,97.84 194.00,100.90 194.00,101.97 C194.00,103.03 193.48,105.05 192.84,106.45 C191.89,108.54 191.98,109.32 193.34,110.82 C194.89,112.54 194.85,112.79 192.68,114.83 ZM 361.27 222.25 L 361.30 222.14 C361.36,222.59 362.23,221.92 363.97,220.08 C366.28,217.63 367.20,215.71 367.20,213.33 C367.20,209.54 368.52,208.91 369.57,212.21 C369.99,213.54 369.82,214.56 369.13,214.79 C368.51,215.00 368.00,215.94 368.00,216.88 C368.00,217.83 367.59,219.03 367.08,219.55 C365.67,221.00 364.49,228.43 365.79,227.63 C366.38,227.26 366.15,228.40 365.28,230.15 C364.05,232.61 363.92,233.96 364.73,236.11 C365.91,239.21 365.52,240.00 362.83,240.00 C361.73,240.00 361.00,240.72 361.00,241.81 C361.00,242.80 359.88,245.14 358.50,247.00 C357.12,248.86 356.00,251.01 356.00,251.78 C356.00,252.54 354.42,255.09 352.50,257.43 C350.58,259.78 349.00,262.49 349.00,263.45 C349.00,264.40 348.13,265.41 347.07,265.69 C345.02,266.23 343.64,268.60 344.53,270.04 C345.27,271.25 338.40,280.18 335.34,282.00 C333.95,282.83 332.21,285.24 331.48,287.37 C330.75,289.50 328.77,292.88 327.07,294.87 C325.38,296.87 321.52,302.20 318.51,306.72 C314.62,312.55 312.58,314.78 311.51,314.37 C310.68,314.05 310.00,313.16 310.00,312.39 C310.00,311.02 309.49,310.72 308.67,311.39 C311.41,306.92 314.54,302.03 318.09,296.65 C313.02,304.40 310.03,309.52 310.94,309.03 C312.07,308.43 313.00,307.46 313.00,306.88 C313.00,305.64 319.27,297.60 323.21,293.81 C324.74,292.32 326.00,290.22 326.00,289.13 C326.00,288.04 327.03,285.88 328.29,284.33 C329.55,282.77 331.12,280.25 331.78,278.72 C332.44,277.19 333.67,275.68 334.51,275.36 C335.35,275.04 337.63,271.59 339.59,267.69 C341.54,263.80 344.43,258.98 346.00,257.00 C347.58,255.01 349.17,252.06 349.55,250.44 C349.95,248.71 347.40,252.02 343.32,258.50 C343.14,258.79 342.94,259.10 342.73,259.43 C342.84,259.26 342.94,259.10 343.03,258.95 C345.35,255.26 349.16,248.54 352.57,242.26 C351.31,245.04 351.61,245.57 353.59,244.23 C354.90,243.35 356.07,239.16 355.16,238.62 C354.94,238.49 354.49,238.92 353.97,239.68 C357.32,233.45 360.00,228.19 360.00,227.59 C360.00,227.28 359.17,227.02 358.13,227.00 C358.15,227.00 358.18,227.00 358.20,227.00 C359.98,227.00 360.48,225.43 359.40,223.89 C359.56,223.96 359.75,224.00 359.94,224.00 C360.40,224.00 360.99,223.21 361.27,222.25 ZM 360.60 216.28 C361.14,214.50 361.36,213.00 360.90,213.00 C360.43,213.00 359.76,214.09 359.43,215.43 C358.87,217.67 356.30,219.63 355.27,218.60 C354.85,218.18 354.46,216.81 352.15,207.68 C351.61,205.57 350.52,203.10 349.72,202.18 C348.17,200.39 346.54,191.03 347.77,190.95 C354.08,190.54 358.50,189.82 361.98,188.62 C368.29,186.44 369.00,187.10 369.00,195.09 C369.00,201.62 368.87,201.99 366.50,202.48 L 361.50 203.52 C358.66,204.11 358.39,205.59 360.40,209.47 L 361.80 212.17 L 362.48 209.09 C362.85,207.39 363.77,206.00 364.52,206.00 C363.77,206.00 362.86,207.46 362.50,209.25 C362.03,211.55 361.32,214.13 360.60,216.28 ZM 319.33 412.75 C320.36,414.38 321.20,414.33 323.56,412.49 C324.62,411.66 324.89,411.10 324.17,411.23 L 324.17 411.23 C324.65,410.75 323.99,408.80 322.32,405.71 C324.82,409.56 325.45,409.95 326.22,408.57 C326.95,407.27 326.66,406.27 325.10,404.60 C323.94,403.38 323.00,401.84 323.00,401.19 C323.00,400.53 322.66,400.00 322.25,399.99 C321.84,399.99 320.72,398.61 319.76,396.93 C318.80,395.25 317.56,394.15 317.01,394.50 C316.54,394.78 316.38,395.18 316.68,396.10 C314.23,391.93 311.33,386.98 308.89,382.77 C305.66,377.22 302.54,372.46 301.05,370.72 C302.47,372.29 305.21,376.33 307.97,381.02 C311.53,387.06 314.77,392.00 315.17,392.00 C316.27,392.00 314.05,386.28 312.42,384.94 C311.64,384.29 311.00,382.70 311.00,381.41 C311.00,380.09 310.13,378.60 309.00,378.00 C307.90,377.41 307.00,376.14 307.00,375.18 C307.00,374.21 305.76,371.96 304.25,370.16 C301.66,367.10 301.31,366.97 298.25,368.05 C294.86,369.25 294.38,369.96 295.92,371.55 C296.43,372.07 297.24,374.08 297.73,376.00 C298.32,378.33 299.54,379.95 301.38,380.84 C302.91,381.58 304.34,381.99 304.57,381.76 C304.75,381.58 304.08,379.92 302.99,377.73 C304.10,379.68 305.49,381.98 307.15,384.61 C307.52,385.21 307.89,385.80 308.24,386.36 C306.96,384.66 306.00,384.41 306.00,386.11 C306.00,386.72 307.54,390.20 309.42,393.86 C311.30,397.51 313.36,401.62 313.99,403.00 C315.10,405.43 317.72,410.21 319.33,412.75 ZM 299.07 444.96 C296.15,446.53 294.57,446.23 292.17,443.69 C289.94,441.31 289.24,438.00 290.97,438.00 C291.50,438.00 293.52,438.76 295.45,439.68 C299.29,441.51 300.03,441.28 300.26,438.17 C300.35,437.04 301.56,435.54 302.96,434.84 C304.36,434.14 307.08,432.35 309.02,430.88 C310.95,429.41 314.78,427.19 317.52,425.95 C320.26,424.72 323.52,423.24 324.77,422.67 C326.36,421.95 327.37,421.97 328.13,422.73 C329.64,424.24 328.54,425.65 325.26,426.45 C322.23,427.19 314.96,431.77 313.71,433.72 C312.47,435.67 304.30,441.00 302.57,441.00 C301.71,441.00 301.00,441.66 301.00,442.46 C301.00,443.27 300.13,444.40 299.07,444.96 ZM 188.52 249.75 C191.48,254.78 195.85,253.99 197.28,248.17 C197.70,246.46 197.08,245.02 194.98,242.82 C193.40,241.17 191.93,239.29 191.71,238.66 C191.44,237.84 190.24,238.01 187.66,239.23 C183.84,241.04 183.09,242.94 185.31,245.18 C186.02,245.91 187.47,247.96 188.52,249.75 ZM 295.56 336.42 C295.89,335.57 296.24,334.70 296.63,333.80 L 298.36 334.56 C299.54,335.08 300.45,336.06 300.40,336.75 C300.35,337.44 300.23,339.61 300.15,341.58 C299.94,346.50 297.79,345.55 296.42,339.93 ZM 183.50 348.00 C183.50,352.38 180.43,353.56 179.43,349.57 C178.57,346.15 179.59,343.77 181.75,344.19 C183.02,344.43 183.50,345.49 183.50,348.00 ZM 168.75 99.31 C171.81,100.11 172.00,100.04 172.00,98.12 C172.00,95.87 169.51,93.57 168.04,94.47 C166.36,95.51 166.84,98.81 168.75,99.31 ZM 301.74 323.34 C302.84,321.30 304.04,319.17 305.36,316.91 C305.31,317.38 305.47,317.66 305.83,317.78 C306.47,317.99 307.00,319.01 307.00,320.05 C307.00,322.20 303.52,324.44 301.82,323.39 ZM 282.66 414.83 C283.50,418.01 285.00,417.48 285.00,414.00 C285.00,412.35 284.58,411.00 284.06,411.00 C282.58,411.00 282.05,412.46 282.66,414.83 ZM 297.27 420.67 C297.05,421.34 297.65,421.69 298.69,421.50 C299.69,421.31 300.84,421.12 301.25,421.08 C301.66,421.03 302.00,420.52 302.00,419.93 C302.00,418.51 297.76,419.17 297.27,420.67 ZM 220.54 253.25 C214.50,254.75 212.73,255.80 211.63,257.47 C212.60,255.77 213.98,255.06 216.00,254.36 C216.56,254.16 218.18,253.77 220.54,253.25 ZM 318.82 404.60 C317.10,401.95 315.16,398.75 313.30,395.45 C314.51,397.31 316.80,401.11 318.82,404.60 ZM 211.54 273.62 C212.12,256.22 213.38,256.71 227.50,254.03 C229.98,253.56 232.35,253.11 234.62,252.67 C233.09,253.03 230.32,253.59 227.85,254.03 C213.15,256.65 212.21,256.38 211.54,273.62 ZM 338.91 261.08 C341.19,257.52 343.15,254.34 344.12,252.50 C344.92,251.01 345.90,249.30 346.68,248.01 C345.70,249.88 344.76,251.59 343.95,253.00 C342.82,254.97 341.23,257.52 338.91,261.08 ZM 292.20 352.49 C292.15,348.93 292.72,345.13 294.05,340.77 L 293.54 342.84 C292.64,346.51 292.20,349.64 292.20,352.49 ZM 279.60 242.20 C276.06,242.47 267.42,244.00 249.52,247.41 C261.85,245.03 273.71,242.86 277.50,242.38 C278.33,242.27 279.03,242.22 279.60,242.20 ZM 300.55 325.57 C300.84,325.02 301.13,324.47 301.44,323.90 C301.79,324.51 301.72,325.00 301.26,325.00 C301.10,325.00 300.86,325.21 300.55,325.57 ZM 361.94 219.91 C364.28,211.70 365.19,208.32 365.25,206.94 C365.26,207.88 364.86,209.64 364.00,212.75 C363.27,215.39 362.47,218.14 361.94,219.91 ZM 209.12 290.44 C209.11,299.13 209.28,308.28 209.63,316.10 C209.27,308.38 209.07,299.29 209.12,290.44 ZM 323.27 288.89 C330.38,278.31 337.98,266.83 341.68,261.08 C337.39,267.76 329.77,279.27 323.27,288.89 ZM 291.98 250.00 C291.38,250.37 291.00,250.18 291.01,249.25 C291.01,249.66 291.44,249.99 291.98,250.00 ZM 210.18 262.67 C209.90,264.92 209.69,267.91 209.52,271.39 C209.67,267.68 209.87,264.85 210.18,262.67 ZM 292.09 361.44 C292.49,361.17 292.64,359.11 292.48,356.58 C292.69,359.08 292.54,361.17 292.11,361.43 ZM 211.66 335.56 C212.10,336.70 212.58,337.18 212.97,337.14 C212.61,337.33 212.16,336.85 211.66,335.56 ZM 300.18 370.02 C299.69,370.05 299.69,370.73 300.14,371.99 C299.63,370.66 299.65,370.01 300.17,370.02 C300.18,370.02 300.18,370.02 300.18,370.02 ZM 358.75 220.65 C359.01,220.21 359.28,219.69 359.53,219.14 C359.24,219.79 358.98,220.31 358.75,220.65 ZM 306.86 223.56 C306.91,223.48 306.96,223.40 307.00,223.34 C307.94,221.92 308.39,220.91 308.48,220.30 C308.39,220.91 307.94,221.92 307.00,223.34 C306.95,223.41 306.91,223.48 306.86,223.56 ZM 310.71 390.69 C310.61,390.49 310.51,390.30 310.41,390.11 C310.53,390.32 310.63,390.52 310.71,390.69 Z" fill="rgb(75,129,203)"/>
<path d="M 292.36 355.17 C292.27,354.29 292.21,353.40 292.20,352.49 C292.20,349.64 292.64,346.51 293.54,342.84 L 294.05 340.77 C294.47,339.38 294.97,337.94 295.56,336.42 L 296.42 339.93 C297.67,345.03 299.55,346.29 300.04,342.81 C300.03,343.13 300.02,343.46 300.02,343.79 C299.99,350.56 300.36,351.26 322.26,386.40 C332.16,402.29 340.47,416.08 340.72,417.05 C341.02,418.18 340.10,419.61 338.13,421.06 L 335.08 423.32 L 336.69 425.92 C335.36,424.09 334.48,423.85 333.49,424.52 C332.69,425.06 324.65,430.21 315.61,435.96 L 299.18 446.42 L 298.81 449.39 C298.92,447.95 298.86,447.00 298.56,447.00 C298.21,447.00 296.84,447.71 295.51,448.59 C294.18,449.46 292.57,449.85 291.94,449.46 C290.54,448.60 286.22,439.27 271.36,405.00 C265.04,390.42 258.28,375.15 256.34,371.05 C251.43,360.68 249.73,351.93 250.96,343.26 C251.88,336.83 255.42,328.04 267.19,303.00 C268.87,299.42 271.27,294.25 272.52,291.50 C273.77,288.75 278.46,278.46 282.94,268.62 C287.41,258.79 290.90,250.57 290.68,250.35 C290.46,250.13 282.23,251.33 272.39,253.01 C226.26,260.91 227.00,260.73 224.46,264.36 C223.66,265.51 223.00,267.85 223.00,269.57 C223.00,271.28 225.46,288.17 228.46,307.09 C229.04,310.76 229.58,314.09 230.06,317.12 C234.16,342.88 234.69,346.19 233.51,347.00 C233.20,347.21 232.77,347.24 232.25,347.47 C231.32,347.89 230.71,348.12 230.40,348.57 C230.11,348.98 230.08,349.58 230.28,350.67 C230.03,349.95 229.78,349.45 229.55,349.22 C228.96,348.62 192.70,352.98 190.47,353.91 C189.51,354.31 188.66,355.45 187.93,357.31 L 188.95 353.82 L 183.22 354.16 L 177.50 354.50 L 177.24 300.64 C177.08,266.79 177.36,245.39 177.99,243.04 C179.33,238.06 182.82,233.04 186.81,230.35 C189.99,228.21 208.73,221.91 234.00,214.48 C240.88,212.46 248.30,210.19 250.50,209.43 C252.70,208.67 263.50,205.32 274.50,201.99 L 294.50 195.93 L 308.50 182.22 L 311.41 184.04 C317.43,187.81 326.67,189.18 342.61,188.66 C350.80,188.40 360.20,187.75 363.50,187.22 C366.80,186.69 369.86,186.59 370.31,186.99 C370.75,187.39 370.64,196.44 370.07,207.11 C369.96,209.12 369.85,211.02 369.73,212.83 C369.69,212.63 369.63,212.42 369.57,212.21 C368.52,208.91 367.20,209.54 367.20,213.33 C367.20,215.71 366.28,217.63 363.97,220.08 C362.23,221.92 361.36,222.59 361.30,222.14 C361.52,221.36 361.73,220.62 361.94,219.91 C362.47,218.14 363.27,215.39 364.00,212.75 C364.86,209.64 365.26,207.88 365.25,206.94 C365.28,206.10 364.99,206.00 364.52,206.00 L 364.52 206.00 C363.77,206.00 362.85,207.39 362.48,209.09 L 361.80 212.17 L 360.40 209.47 C358.39,205.59 358.66,204.11 361.50,203.52 L 366.50 202.48 C368.87,201.99 369.00,201.62 369.00,195.09 C369.00,187.10 368.29,186.44 361.98,188.62 C358.50,189.82 354.08,190.54 347.77,190.95 C346.54,191.03 348.17,200.39 349.72,202.18 C350.52,203.10 351.61,205.57 352.15,207.68 C354.46,216.81 354.85,218.18 355.27,218.60 C356.30,219.63 358.87,217.67 359.43,215.43 C359.76,214.09 360.43,213.00 360.90,213.00 C361.36,213.00 361.14,214.50 360.60,216.28 C360.24,217.37 359.87,218.35 359.53,219.14 L 359.53 219.14 C359.28,219.69 359.01,220.21 358.75,220.65 C358.73,220.67 358.72,220.69 358.71,220.71 C357.91,221.80 358.36,223.45 359.40,223.89 C359.83,224.50 360.01,225.12 359.96,225.64 C359.69,224.81 358.26,222.81 356.54,220.92 C351.57,215.41 348.85,209.49 348.25,202.82 C347.81,198.00 347.40,197.00 345.86,197.00 C343.54,197.00 343.46,199.51 345.54,207.48 C347.27,214.14 349.90,218.99 354.35,223.75 C356.09,225.61 357.68,226.72 358.73,226.95 C358.57,226.98 358.39,227.00 358.20,227.00 C358.18,227.00 358.15,227.00 358.13,227.00 C358.09,227.00 358.04,227.00 358.00,227.00 C356.90,227.00 356.00,227.51 356.00,228.13 C356.00,228.80 354.26,232.75 351.96,237.51 C351.94,237.53 351.92,237.55 351.90,237.56 C350.52,238.42 350.83,234.65 352.47,230.73 C353.86,227.40 353.81,227.09 351.54,224.64 C350.23,223.22 348.83,221.04 348.44,219.78 C348.05,218.53 346.89,216.43 345.86,215.12 C344.84,213.80 344.00,211.32 344.00,209.60 C344.00,207.88 343.09,204.77 341.97,202.69 C339.89,198.81 340.06,197.00 342.49,197.00 C344.41,197.00 345.55,192.96 343.91,191.94 C343.19,191.50 341.83,191.55 340.88,192.06 C338.41,193.38 329.92,192.02 327.12,189.85 C324.13,187.53 322.38,187.51 321.10,189.75 C320.17,191.36 319.96,191.32 318.43,189.17 C317.19,187.43 316.17,186.99 314.38,187.44 C312.98,187.79 311.03,187.41 309.67,186.52 C307.52,185.11 307.20,185.17 305.29,187.25 C304.16,188.49 302.94,190.45 302.59,191.62 C301.65,194.74 292.37,200.18 288.55,199.86 C286.82,199.71 284.34,200.35 282.99,201.29 C281.65,202.23 279.30,203.00 277.76,203.00 C276.23,203.00 274.19,203.39 273.24,203.86 C264.89,208.02 259.92,210.00 257.87,210.00 C256.54,210.00 254.51,210.65 253.37,211.45 C252.24,212.25 249.32,213.01 246.90,213.14 C244.48,213.27 239.80,214.64 236.50,216.19 C232.81,217.92 228.83,219.00 226.16,219.00 C223.33,219.00 220.93,219.70 219.27,221.00 C217.61,222.31 215.22,223.00 212.37,223.00 C209.96,223.00 208.00,223.45 208.00,224.00 C208.00,224.55 206.98,225.00 205.72,225.00 C204.47,225.00 202.56,225.59 201.47,226.32 C200.39,227.04 197.48,228.21 195.00,228.93 C187.53,231.07 185.30,232.72 182.25,238.35 C179.62,243.22 179.38,244.43 179.75,251.11 C180.88,271.20 181.04,330.72 179.98,334.37 C178.51,339.40 179.84,340.99 183.52,338.58 C185.26,337.44 186.53,337.19 187.32,337.83 C189.19,339.36 198.58,339.68 199.90,338.26 C200.54,337.58 202.28,336.76 203.78,336.43 C209.19,335.24 209.23,335.21 208.71,330.74 C208.44,328.41 207.91,324.92 207.53,323.00 C207.14,321.08 206.82,307.12 206.80,292.00 C206.76,261.87 207.34,257.50 212.00,252.84 C214.55,250.30 215.54,250.00 221.36,250.00 C224.95,250.00 228.16,249.55 228.50,249.00 C228.84,248.45 231.48,248.00 234.36,248.00 C237.24,248.00 240.03,247.63 240.55,247.18 C241.99,245.95 251.79,243.75 252.88,244.42 C253.40,244.75 256.68,244.39 260.16,243.63 C276.94,239.97 280.98,239.55 282.75,241.32 C285.09,243.66 283.51,244.78 277.00,245.41 C271.57,245.93 271.56,245.93 275.93,244.99 C279.65,244.20 281.66,243.22 281.62,242.66 C281.88,242.24 281.38,242.06 279.60,242.20 C279.03,242.22 278.33,242.27 277.50,242.38 C273.71,242.86 261.85,245.03 249.52,247.41 C248.38,247.62 247.21,247.85 246.00,248.08 C233.32,250.50 225.49,252.03 220.54,253.25 C218.18,253.77 216.56,254.16 216.00,254.36 C213.98,255.06 212.60,255.77 211.63,257.47 C211.42,257.80 211.23,258.15 211.04,258.54 C210.71,259.22 210.42,260.65 210.18,262.67 C209.87,264.85 209.67,267.68 209.52,271.39 C209.26,276.84 209.13,283.49 209.12,290.44 C209.07,299.29 209.27,308.38 209.63,316.10 L 209.63 316.10 C210.06,325.61 210.74,333.17 211.66,335.56 C212.10,336.70 212.58,337.18 212.97,337.14 C213.57,337.06 213.96,335.75 213.71,333.72 C213.73,332.86 213.70,331.87 213.61,330.75 C213.34,327.31 213.35,325.51 213.63,326.75 C213.91,327.99 214.56,329.00 215.07,329.00 C215.58,329.00 216.00,330.05 216.00,331.33 C216.00,334.17 219.62,337.70 222.99,338.16 C227.03,338.71 226.66,341.64 222.27,343.75 C218.98,345.35 216.17,345.60 202.96,345.48 C193.74,345.40 187.23,345.74 186.84,346.33 C185.99,347.61 187.99,352.01 189.41,351.98 C190.01,351.96 192.30,351.47 194.50,350.89 C196.70,350.31 202.04,349.63 206.37,349.39 C210.70,349.15 216.10,348.47 218.37,347.88 C220.64,347.30 224.52,346.52 227.00,346.16 C231.24,345.54 231.49,345.33 231.32,342.50 C231.02,337.29 229.96,331.79 228.88,329.77 C228.30,328.70 227.90,325.84 227.98,323.41 C228.23,316.07 228.21,315.76 227.00,308.04 C226.36,303.94 225.20,299.35 224.42,297.84 C223.62,296.29 223.00,292.25 223.00,288.55 C223.00,284.95 222.62,282.00 222.16,282.00 C220.61,282.00 218.91,274.32 219.90,271.83 C220.41,270.55 221.38,267.37 222.04,264.77 C222.71,262.17 223.76,259.64 224.37,259.15 C224.99,258.65 227.98,257.94 231.00,257.56 C242.44,256.13 244.53,255.75 245.57,254.91 C246.16,254.44 248.86,254.31 251.57,254.64 C255.60,255.11 256.96,254.85 259.00,253.20 C260.38,252.08 261.27,250.95 261.00,250.69 C260.73,250.42 257.58,250.75 254.00,251.43 C250.43,252.11 245.70,252.44 243.50,252.18 C241.15,251.90 240.85,251.64 244.00,250.88 C252.02,249.34 258.39,248.11 263.43,247.10 C263.76,247.30 264.00,248.07 264.00,249.00 C264.00,251.20 264.08,251.22 274.75,251.39 C278.73,251.45 281.99,251.18 282.00,250.80 C282.00,250.41 283.50,249.38 285.33,248.51 C287.28,247.59 289.35,245.49 290.31,243.47 C291.22,241.56 292.46,240.00 293.07,240.00 C293.80,240.00 293.95,238.68 293.52,236.13 C292.96,232.78 293.14,232.20 294.93,231.73 C296.18,231.40 297.00,230.37 297.00,229.12 C297.00,227.98 298.10,226.33 299.44,225.45 C300.78,224.57 302.16,222.54 302.52,220.93 C302.87,219.32 303.69,217.93 304.33,217.85 C307.84,217.39 308.61,217.46 309.75,218.31 C312.30,220.22 311.14,224.89 307.00,229.38 C304.80,231.77 303.00,234.31 303.00,235.03 C303.00,236.54 300.10,240.00 298.83,240.00 C298.44,240.00 299.27,237.86 300.62,235.00 C303.25,229.92 305.80,225.24 306.86,223.56 C306.91,223.48 306.95,223.41 307.00,223.34 C307.94,221.92 308.39,220.91 308.48,220.30 C308.70,218.73 306.51,219.85 303.99,223.52 C301.03,227.81 291.05,247.62 291.01,249.25 C291.00,250.18 291.38,250.37 291.98,250.00 L 291.99 250.00 C292.07,250.00 292.19,249.90 292.36,249.71 C293.18,248.99 294.25,247.48 295.21,245.51 C296.67,242.50 297.65,241.42 298.18,242.26 C299.58,244.47 299.05,246.75 297.00,247.29 C295.70,247.63 295.00,248.65 295.00,250.22 C295.00,251.59 293.71,253.87 292.00,255.50 C290.35,257.08 289.00,259.13 289.00,260.06 C289.00,260.99 288.33,262.32 287.50,263.00 C286.67,263.68 286.00,265.02 286.00,265.97 C286.00,266.92 285.10,268.73 284.00,270.00 C282.90,271.27 282.00,273.22 282.00,274.34 C282.00,275.46 281.06,277.38 279.90,278.60 C278.47,280.13 277.69,282.49 277.45,286.04 C277.26,288.90 276.43,291.97 275.62,292.87 C274.80,293.77 273.65,295.63 273.06,297.00 C272.46,298.38 271.02,301.08 269.84,303.00 C268.67,304.92 267.59,307.55 267.43,308.83 C267.28,310.12 266.52,311.92 265.75,312.83 C264.97,313.75 263.30,316.96 262.04,319.98 C260.78,322.99 259.17,326.36 258.46,327.48 C257.75,328.59 255.95,333.07 254.46,337.44 C252.21,344.02 251.85,346.45 252.33,351.62 C252.93,358.03 257.15,368.84 260.95,373.66 C262.08,375.10 263.00,377.28 263.00,378.51 C263.00,381.15 265.63,387.85 267.51,390.00 C268.23,390.83 269.51,394.14 270.35,397.37 C271.19,400.59 272.78,404.20 273.90,405.39 C275.01,406.58 276.45,410.01 277.10,413.02 C278.11,417.74 279.53,420.74 285.50,430.81 C287.60,434.35 288.15,435.00 289.02,435.00 C289.52,435.00 290.37,434.18 290.91,433.17 C292.03,431.07 298.64,427.64 304.50,426.11 C306.70,425.54 309.48,424.81 310.69,424.49 C311.89,424.17 313.42,422.66 314.10,421.15 C315.25,418.54 320.36,416.00 324.43,416.00 C325.24,416.00 326.26,415.38 326.70,414.62 C327.14,413.86 328.99,412.34 330.81,411.24 L 334.13 409.24 L 331.44 407.13 C329.50,405.60 328.92,404.43 329.33,402.86 C329.76,401.22 328.59,399.19 324.59,394.59 C319.22,388.43 313.26,377.01 314.43,375.12 C314.78,374.55 313.71,373.38 312.05,372.53 C310.39,371.67 308.28,369.51 307.36,367.73 C306.44,365.95 304.85,363.37 303.83,361.99 C302.81,360.61 301.78,358.46 301.54,357.22 C301.30,355.98 300.41,354.27 299.55,353.41 C298.70,352.56 297.99,351.33 297.98,350.68 C297.96,348.45 296.34,346.93 294.67,347.57 C293.46,348.04 293.00,349.43 293.00,352.61 C293.00,356.33 293.30,357.00 295.00,357.00 C296.29,357.00 297.00,357.67 297.00,358.88 C297.00,361.17 295.37,362.62 291.76,363.52 C289.48,364.10 288.88,363.81 288.12,361.80 C287.09,359.12 287.75,354.00 289.12,354.00 C289.60,354.00 290.00,355.09 290.00,356.42 C290.00,358.23 290.31,359.78 290.77,360.69 C291.10,361.55 291.53,361.79 292.08,361.45 C292.09,361.45 292.09,361.44 292.09,361.44 C292.54,361.17 292.69,359.08 292.48,356.58 C292.45,356.12 292.41,355.65 292.36,355.17 ZM 301.74 323.34 C303.52,324.44 307.00,322.20 307.00,320.05 C307.00,319.01 306.47,317.99 305.83,317.78 C305.47,317.66 305.31,317.38 305.36,316.91 C306.40,315.14 307.50,313.31 308.67,311.39 C309.49,310.72 310.00,311.02 310.00,312.39 C310.00,313.16 310.68,314.05 311.51,314.37 C312.58,314.78 314.62,312.55 318.51,306.72 C321.52,302.20 325.38,296.87 327.07,294.87 C328.77,292.88 330.75,289.50 331.48,287.37 C332.21,285.24 333.95,282.83 335.34,282.00 C338.40,280.18 345.27,271.25 344.53,270.04 C343.64,268.60 345.02,266.23 347.07,265.69 C348.13,265.41 349.00,264.40 349.00,263.45 C349.00,262.49 350.58,259.78 352.50,257.43 C354.42,255.09 356.00,252.54 356.00,251.78 C356.00,251.01 357.12,248.86 358.50,247.00 C359.88,245.14 361.00,242.80 361.00,241.81 C361.00,240.72 361.73,240.00 362.83,240.00 C365.52,240.00 365.91,239.21 364.73,236.11 C363.92,233.96 364.05,232.61 365.28,230.15 C366.15,228.40 366.38,227.26 365.79,227.63 C364.49,228.43 365.67,221.00 367.08,219.55 C367.59,219.03 368.00,217.83 368.00,216.88 C368.00,215.94 368.51,215.00 369.13,214.79 C369.35,214.72 369.51,214.57 369.62,214.36 C367.89,238.58 364.25,246.26 345.62,272.29 C338.84,281.76 329.11,295.35 324.00,302.50 C318.88,309.65 312.29,318.70 309.36,322.62 C303.34,330.64 300.77,335.70 300.17,341.16 C300.25,339.31 300.35,337.39 300.40,336.75 C300.45,336.06 299.54,335.08 298.36,334.56 L 296.63 333.80 C297.71,331.25 299.01,328.52 300.55,325.57 C300.86,325.21 301.10,325.00 301.26,325.00 C301.72,325.00 301.79,324.51 301.44,323.90 C301.54,323.71 301.64,323.53 301.74,323.34 ZM 299.07 444.96 C300.13,444.40 301.00,443.27 301.00,442.46 C301.00,441.66 301.71,441.00 302.57,441.00 C304.30,441.00 312.47,435.67 313.71,433.72 C314.96,431.77 322.23,427.19 325.26,426.45 C328.54,425.65 329.64,424.24 328.13,422.73 C327.37,421.97 326.36,421.95 324.77,422.67 C323.52,423.24 320.26,424.72 317.52,425.95 C314.78,427.19 310.95,429.41 309.02,430.88 C307.08,432.35 304.36,434.14 302.96,434.84 C301.56,435.54 300.35,437.04 300.26,438.17 C300.03,441.28 299.29,441.51 295.45,439.68 C293.52,438.76 291.50,438.00 290.97,438.00 C289.24,438.00 289.94,441.31 292.17,443.69 C294.57,446.23 296.15,446.53 299.07,444.96 ZM 192.68 114.83 C194.85,112.79 194.89,112.54 193.34,110.82 C191.98,109.32 191.89,108.54 192.84,106.45 C193.48,105.05 194.00,103.03 194.00,101.97 C194.00,100.90 195.35,97.84 197.00,95.15 C198.65,92.47 200.00,89.94 200.00,89.53 C200.00,89.12 198.88,87.45 197.50,85.82 C194.47,82.21 194.26,79.01 197.00,78.29 C197.89,78.06 198.64,77.35 198.90,76.59 C198.97,77.11 199.00,77.67 199.00,78.27 C199.00,81.25 199.75,83.09 202.00,85.65 C203.65,87.53 205.00,89.60 205.00,90.25 C205.00,90.90 202.93,93.53 200.41,96.10 C196.22,100.35 195.81,101.19 195.80,105.63 C195.80,108.31 195.95,111.37 196.15,112.43 C196.38,113.72 195.39,115.11 193.10,116.68 C191.23,117.95 188.76,118.98 187.60,118.95 C185.19,118.90 179.37,114.27 170.33,105.23 C170.91,105.51 171.47,105.60 172.01,105.50 C173.10,105.29 174.00,105.47 174.00,105.90 C174.00,106.33 175.12,107.19 176.50,107.82 C177.93,108.47 179.00,109.80 179.00,110.92 C179.00,112.29 179.56,112.78 180.84,112.53 C181.86,112.33 183.99,113.24 185.59,114.55 C189.20,117.50 189.81,117.53 192.68,114.83 ZM 211.54 273.62 C212.21,256.38 213.15,256.65 227.85,254.03 C230.32,253.59 233.09,253.03 234.62,252.67 C235.31,252.54 236.00,252.41 236.68,252.28 C236.64,252.41 236.09,252.77 235.00,253.42 C233.62,254.25 231.26,254.95 229.75,254.96 C228.24,254.98 227.00,255.45 227.00,256.00 C227.00,256.55 225.69,257.00 224.09,257.00 C221.05,257.00 216.77,260.99 215.50,265.01 C215.14,266.12 214.53,266.83 214.13,266.58 C213.73,266.33 213.43,270.04 213.45,274.82 C213.48,279.59 213.39,287.55 213.26,292.50 C213.13,297.45 213.27,304.88 213.56,309.00 C213.86,313.12 213.70,318.30 213.21,320.50 C212.72,322.69 212.44,322.75 212.11,319.27 C211.29,308.15 210.96,294.43 211.30,282.08 C211.39,278.87 211.46,276.07 211.54,273.62 ZM 291.00 436.60 C291.00,438.86 293.81,438.23 298.68,434.88 C301.18,433.16 310.61,428.18 319.63,423.82 C329.09,419.24 335.78,415.45 335.41,414.86 C334.41,413.23 330.63,414.64 314.82,422.52 C295.88,431.97 291.00,434.85 291.00,436.60 ZM 183.62 343.20 C184.05,343.88 186.65,344.04 190.89,343.64 C194.53,343.30 203.24,343.01 210.25,343.01 C220.74,343.00 223.00,342.74 223.00,341.55 C223.00,339.12 216.42,338.61 200.26,339.77 C184.66,340.90 182.48,341.35 183.62,343.20 ZM 188.52 249.75 C187.47,247.96 186.02,245.91 185.31,245.18 C183.09,242.94 183.84,241.04 187.66,239.23 C190.24,238.01 191.44,237.84 191.71,238.66 C191.93,239.29 193.40,241.17 194.98,242.82 C197.08,245.02 197.70,246.46 197.28,248.17 C195.85,253.99 191.48,254.78 188.52,249.75 ZM 170.14 84.80 C173.96,85.86 176.26,87.91 177.96,91.41 C179.08,93.73 180.00,96.09 180.00,96.66 C180.00,98.45 183.86,101.27 185.46,100.65 C186.67,100.19 187.00,98.34 187.00,92.05 C187.00,86.67 187.68,82.26 189.07,78.74 C188.27,80.94 188.40,82.13 189.51,85.31 C191.28,90.38 191.40,95.25 189.84,98.26 C189.21,99.49 188.38,101.18 187.99,102.00 C187.13,103.86 182.34,104.53 180.54,103.04 C179.81,102.43 178.91,100.36 178.56,98.44 C178.20,96.53 176.64,93.50 175.10,91.73 C173.56,89.95 171.76,87.49 171.11,86.25 C170.79,85.63 170.47,85.15 170.14,84.80 ZM 300.18 370.02 L 300.17 370.02 C299.65,370.01 299.63,370.66 300.14,371.99 C300.61,373.29 301.57,375.22 302.99,377.73 C304.08,379.92 304.75,381.58 304.57,381.76 C304.34,381.99 302.91,381.58 301.38,380.84 C299.54,379.95 298.32,378.33 297.73,376.00 C297.24,374.08 296.43,372.07 295.92,371.55 C294.38,369.96 294.86,369.25 298.25,368.05 C301.31,366.97 301.66,367.10 304.25,370.16 C305.76,371.96 307.00,374.21 307.00,375.18 C307.00,376.14 307.90,377.41 309.00,378.00 C310.13,378.60 311.00,380.09 311.00,381.41 C311.00,382.70 311.64,384.29 312.42,384.94 C314.05,386.28 316.27,392.00 315.17,392.00 C314.77,392.00 311.53,387.06 307.97,381.02 C305.21,376.33 302.47,372.29 301.05,370.72 C300.65,370.27 300.37,370.02 300.23,370.02 C300.21,370.02 300.20,370.02 300.18,370.02 ZM 323.27 288.89 C329.77,279.27 337.39,267.76 341.68,261.08 L 341.68 261.08 C342.08,260.46 342.43,259.90 342.73,259.43 L 342.74 259.42 C342.94,259.09 343.14,258.79 343.32,258.50 C347.40,252.02 349.95,248.71 349.55,250.44 C349.17,252.06 347.58,255.01 346.00,257.00 C344.43,258.98 341.54,263.80 339.59,267.69 C337.63,271.59 335.35,275.04 334.51,275.36 C333.67,275.68 332.44,277.19 331.78,278.72 C331.12,280.25 329.55,282.77 328.29,284.33 C327.03,285.88 326.00,288.04 326.00,289.13 C326.00,290.22 324.74,292.32 323.21,293.81 C319.27,297.60 313.00,305.64 313.00,306.88 C313.00,307.46 312.07,308.43 310.94,309.03 C310.03,309.52 313.02,304.40 318.09,296.65 C319.51,294.49 321.00,292.26 322.55,289.95 C322.79,289.60 323.03,289.25 323.27,288.89 ZM 338.91 261.08 C336.67,264.52 333.75,268.90 329.89,274.61 C327.67,277.79 326.02,279.98 325.75,279.99 C325.34,279.99 325.00,279.36 325.00,278.58 C325.00,277.80 325.47,277.01 326.03,276.82 C326.60,276.63 327.69,274.67 328.45,272.46 C329.84,268.45 335.49,259.37 338.44,256.42 C339.30,255.56 340.00,254.23 340.00,253.46 C340.00,252.70 340.85,251.62 341.88,251.06 C342.92,250.51 344.05,248.93 344.40,247.56 C344.74,246.18 345.92,244.58 347.01,243.99 C348.13,243.39 348.77,243.31 348.90,243.71 C348.16,245.18 347.41,246.63 346.68,248.01 C345.90,249.30 344.92,251.01 344.12,252.50 C343.15,254.34 341.19,257.52 338.91,261.08 ZM 319.33 412.75 C317.72,410.21 315.10,405.43 313.99,403.00 C313.36,401.62 311.30,397.51 309.42,393.86 C307.54,390.20 306.00,386.72 306.00,386.11 C306.00,384.41 306.96,384.66 308.24,386.36 C309.15,387.85 309.92,389.18 310.41,390.11 C310.41,390.11 310.41,390.11 310.42,390.11 C310.51,390.30 310.61,390.50 310.71,390.69 L 310.71 390.69 C310.90,391.06 311.00,391.31 311.00,391.40 C311.00,391.77 311.84,393.30 312.86,394.79 C312.98,394.97 313.13,395.19 313.30,395.45 C315.16,398.75 317.10,401.95 318.82,404.60 C318.87,404.69 318.92,404.77 318.96,404.85 C321.68,409.55 323.55,411.84 324.17,411.23 C324.89,411.10 324.62,411.66 323.56,412.49 C321.20,414.33 320.36,414.38 319.33,412.75 ZM 311.87 300.53 C312.02,300.69 311.06,302.52 309.56,305.01 C308.95,305.99 308.34,306.96 307.76,307.92 L 307.76 307.92 C305.31,311.75 302.01,317.36 300.41,320.42 C297.78,325.46 296.00,327.38 296.00,325.17 C296.00,321.88 301.94,310.80 306.32,305.92 C309.16,302.75 311.66,300.33 311.87,300.53 ZM 167.08 102.06 C163.99,99.20 162.89,98.94 160.23,99.17 L 156.50 99.50 L 156.21 93.96 C156.04,90.91 156.31,87.33 156.80,86.02 C157.61,83.81 158.16,83.64 163.59,83.89 C165.19,83.96 166.63,84.10 167.92,84.31 C167.43,84.55 166.89,84.97 166.27,85.58 C165.16,86.69 163.72,86.98 161.42,86.55 C157.61,85.84 156.41,87.09 158.19,89.93 C159.18,91.52 159.19,92.21 158.22,93.18 C155.68,95.72 156.81,97.95 160.98,98.61 C163.67,99.04 165.37,99.99 167.08,102.06 ZM 323.46 281.17 C324.58,281.40 324.14,282.76 321.30,287.23 C321.05,287.60 320.80,287.97 320.54,288.34 C319.37,290.05 318.25,291.72 317.16,293.33 C315.04,296.15 313.97,296.82 314.03,295.25 C314.05,294.84 315.17,292.70 316.53,290.50 C317.88,288.30 318.99,285.47 318.99,284.22 C319.00,281.83 320.79,280.60 323.46,281.17 ZM 320.70 402.88 C319.73,401.27 318.30,398.85 316.68,396.10 C316.38,395.18 316.54,394.78 317.01,394.50 C317.56,394.15 318.80,395.25 319.76,396.93 C320.72,398.61 321.84,399.99 322.25,399.99 C322.66,400.00 323.00,400.53 323.00,401.19 C323.00,401.84 323.94,403.38 325.10,404.60 C326.66,406.27 326.95,407.27 326.22,408.57 C325.45,409.95 324.82,409.56 322.32,405.71 C321.86,404.85 321.32,403.91 320.70,402.88 ZM 190.05 246.57 C192.87,250.67 196.00,252.44 196.00,249.93 C196.00,247.98 189.93,240.00 188.45,240.00 C186.27,240.00 186.68,241.67 190.05,246.57 ZM 296.00 328.58 C296.00,328.70 295.16,331.08 294.08,333.99 C293.84,334.58 293.60,335.18 293.37,335.77 C293.10,336.45 292.85,337.10 292.62,337.71 C290.77,342.04 289.49,343.49 290.52,339.50 C290.94,337.85 291.34,334.74 291.40,332.59 C291.48,329.28 291.85,328.65 293.75,328.50 C294.99,328.41 296.00,328.44 296.00,328.58 ZM 183.50 348.00 C183.50,345.49 183.02,344.43 181.75,344.19 C179.59,343.77 178.57,346.15 179.43,349.57 C180.43,353.56 183.50,352.38 183.50,348.00 ZM 168.75 99.31 C166.84,98.81 166.36,95.51 168.04,94.47 C169.51,93.57 172.00,95.87 172.00,98.12 C172.00,100.04 171.81,100.11 168.75,99.31 ZM 282.66 414.83 C282.05,412.46 282.58,411.00 284.06,411.00 C284.58,411.00 285.00,412.35 285.00,414.00 C285.00,417.48 283.50,418.01 282.66,414.83 ZM 353.59 244.23 C351.61,245.57 351.31,245.04 352.57,242.26 C353.05,241.39 353.52,240.53 353.97,239.68 C354.49,238.92 354.94,238.49 355.16,238.62 C356.07,239.16 354.90,243.35 353.59,244.23 ZM 297.27 420.67 C297.76,419.17 302.00,418.51 302.00,419.93 C302.00,420.52 301.66,421.03 301.25,421.08 C300.84,421.12 299.69,421.31 298.69,421.50 C297.65,421.69 297.05,421.34 297.27,420.67 ZM 162.30 389.62 C161.71,390.04 161.11,390.45 160.50,390.87 C152.12,396.57 150.20,400.12 153.88,403.10 C154.09,403.27 154.29,403.43 154.49,403.58 C154.46,403.57 154.43,403.55 154.41,403.53 C149.69,400.44 151.55,396.78 161.08,390.44 C161.49,390.17 161.90,389.90 162.30,389.62 ZM 186.82 361.00 C185.36,365.89 182.60,370.68 178.49,375.47 C182.33,370.88 185.08,366.09 186.82,361.00 ZM 345.91 446.31 C344.55,441.99 342.73,437.19 341.04,433.79 C340.12,431.95 339.34,430.42 338.65,429.16 C341.64,434.32 343.98,439.87 345.91,446.31 ZM 231.45 355.48 L 231.50 355.66 C232.32,358.83 233.00,365.61 233.00,370.73 C233.00,366.20 232.32,360.06 231.45,355.48 ZM 293.44 467.21 C290.63,472.35 286.56,477.82 280.86,484.28 C286.23,478.19 290.54,472.32 293.44,467.21 ZM 346.22 458.13 C344.72,459.55 342.06,461.04 337.79,463.47 C342.04,461.05 344.69,459.39 346.22,458.13 ZM 298.41 452.50 C298.18,454.19 297.85,455.84 297.41,457.48 C297.81,455.85 298.16,454.10 298.41,452.50 ZM 347.74 453.31 C347.57,452.41 347.33,451.36 347.03,450.22 C347.37,451.42 347.61,452.43 347.74,453.31 ZM 194.45 71.36 C195.21,70.92 195.71,71.34 196.96,72.47 C195.71,71.33 195.22,70.95 194.45,71.36 Z" fill="rgb(81,128,194)"/>
<path d="M 353.24 87.30 C353.41,86.54 353.79,85.78 354.42,85.08 C355.20,84.21 356.15,82.27 356.53,80.77 C357.11,78.43 356.82,77.88 354.56,77.02 C352.21,76.13 351.98,75.63 352.53,72.67 C352.69,71.82 352.78,71.15 352.76,70.60 C352.85,71.22 352.85,71.95 352.78,72.88 C352.52,76.30 352.68,76.52 355.75,76.81 C360.10,77.23 360.22,80.72 356.00,83.84 C354.56,84.91 353.64,86.12 353.24,87.30 ZM 187.86 118.94 C184.38,119.83 180.83,120.09 181.46,119.07 C181.85,118.43 181.57,117.19 180.84,116.30 C180.10,115.42 179.73,114.57 180.00,114.42 C180.04,114.40 180.04,114.35 180.00,114.28 C183.66,117.35 186.21,118.92 187.60,118.95 C187.68,118.95 187.77,118.95 187.86,118.94 ZM 175.00 155.82 C175.00,156.20 173.99,157.15 172.75,157.92 C170.63,159.24 170.59,159.22 172.00,157.50 C173.42,155.77 173.27,155.70 169.00,156.26 L 164.50 156.85 L 168.88 155.45 C173.03,154.12 175.00,154.24 175.00,155.82 ZM 242.66 91.77 C243.54,92.33 243.52,92.94 242.57,94.24 C241.14,96.19 240.00,95.57 240.00,92.83 C240.00,90.88 240.78,90.57 242.66,91.77 ZM 165.00 166.50 C166.02,167.72 165.96,168.00 164.68,168.00 C162.24,168.00 161.84,166.39 163.76,164.31 C164.71,163.26 165.11,162.99 164.63,163.70 C164.09,164.49 164.24,165.58 165.00,166.50 ZM 172.25 137.29 C174.13,137.66 174.17,137.74 172.50,137.78 C167.77,137.92 166.87,135.98 169.64,130.94 C167.66,134.69 168.16,136.00 171.03,134.21 C171.18,134.12 171.33,134.03 171.48,133.95 C171.38,134.03 171.29,134.11 171.20,134.20 C169.44,135.96 169.72,136.81 172.25,137.29 ZM 176.89 111.54 C176.72,111.41 176.54,111.28 176.36,111.15 C174.33,109.67 171.23,106.77 169.08,104.35 C169.51,104.74 169.93,105.03 170.33,105.23 C172.75,107.65 174.94,109.75 176.89,111.54 ZM 192.07 117.45 C191.59,117.69 191.04,117.93 190.45,118.15 C191.34,117.75 192.28,117.24 193.10,116.68 C195.39,115.11 196.38,113.72 196.15,112.43 C196.07,112.00 196.00,111.25 195.94,110.33 C195.97,110.41 195.99,110.48 196.02,110.55 C197.19,113.63 196.21,115.33 192.07,117.45 ZM 195.94 102.85 C196.24,100.63 197.20,99.37 200.08,96.43 C198.07,98.51 196.69,100.68 195.94,102.85 ZM 355.25 91.78 C356.49,92.38 357.86,92.90 358.30,92.93 C356.80,92.81 355.56,92.25 354.67,91.46 C354.85,91.57 355.04,91.68 355.25,91.78 ZM 179.46 129.85 C178.11,124.72 176.91,122.62 175.11,123.54 C176.95,122.41 178.04,124.47 179.46,129.85 ZM 200.46 96.04 C202.92,93.53 204.93,90.98 205.00,90.28 C205.00,90.30 205.00,90.31 205.00,90.33 C205.00,91.02 203.03,93.52 200.61,95.89 C200.56,95.94 200.51,95.99 200.46,96.04 ZM 161.91 99.12 C161.49,99.12 161.03,99.15 160.50,99.19 L 156.50 99.50 L 160.23 99.17 C160.86,99.12 161.41,99.09 161.91,99.12 ZM 174.48 133.06 C175.64,133.07 176.70,133.55 177.65,134.51 C176.77,133.63 175.62,133.14 174.48,133.06 Z" fill="rgb(220,198,121)"/>
<path d="M 200.46 96.04 C200.51,95.99 200.56,95.94 200.61,95.89 C203.03,93.52 205.00,91.02 205.00,90.33 C205.00,90.31 205.00,90.30 205.00,90.28 C205.00,90.27 205.00,90.26 205.00,90.25 C205.00,89.60 203.65,87.53 202.00,85.65 C199.75,83.09 199.00,81.25 199.00,78.27 C199.00,77.67 198.97,77.11 198.90,76.59 C198.97,76.41 199.00,76.22 199.00,76.04 C199.00,75.23 198.34,73.94 197.46,72.97 C198.84,73.98 200.26,74.83 201.20,75.18 C208.34,77.78 211.03,95.57 205.81,105.64 C204.26,108.62 201.94,111.27 199.80,112.50 C198.49,113.25 196.81,114.28 195.41,115.19 C196.64,113.89 196.76,112.50 196.02,110.55 C195.99,110.48 195.97,110.41 195.94,110.33 C195.85,108.97 195.80,107.23 195.80,105.63 C195.80,104.51 195.83,103.62 195.94,102.85 C196.69,100.68 198.07,98.51 200.08,96.43 C200.19,96.32 200.29,96.21 200.41,96.10 ZM 167.08 102.06 C167.22,102.22 167.35,102.39 167.48,102.57 C168.04,103.30 168.57,103.89 169.08,104.35 C171.23,106.77 174.33,109.67 176.36,111.15 C176.54,111.28 176.72,111.41 176.89,111.54 C178.00,112.55 179.04,113.47 180.00,114.28 C180.04,114.35 180.04,114.40 180.00,114.42 C179.73,114.57 180.10,115.42 180.84,116.30 C181.57,117.19 181.85,118.43 181.46,119.07 C180.96,119.87 183.07,119.88 185.70,119.41 C179.78,120.56 175.91,119.86 169.97,116.75 C162.26,112.72 158.03,107.34 156.63,99.49 L 160.50 99.19 C161.03,99.15 161.49,99.12 161.91,99.12 C163.52,99.21 164.72,99.88 167.08,102.06 ZM 359.00 182.60 C363.57,181.76 366.90,180.96 369.13,180.13 C366.95,181.13 364.31,182.00 363.00,182.00 C362.03,182.00 360.63,182.75 359.87,183.66 C358.61,185.20 359.04,185.28 365.35,184.69 C370.94,184.17 372.00,184.30 371.11,185.37 C370.51,186.09 370.26,186.93 370.57,187.23 C370.87,187.53 370.64,196.41 370.07,207.00 C370.65,196.38 370.75,187.39 370.31,186.99 C369.86,186.59 366.80,186.69 363.50,187.22 C360.20,187.75 350.80,188.40 342.61,188.66 C326.67,189.18 317.43,187.81 311.41,184.04 L 308.50 182.22 L 294.50 195.93 L 301.53 188.96 C306.30,184.23 308.64,181.12 308.79,179.32 C309.07,175.87 309.99,174.95 310.03,178.08 C310.10,183.54 321.25,187.00 338.72,187.00 C347.39,187.00 348.85,186.77 348.36,185.50 C348.05,184.68 347.13,184.00 346.33,184.00 C345.54,184.00 345.12,183.62 345.41,183.15 C344.64,184.39 350.42,184.16 359.00,182.60 ZM 173.44 116.53 C175.64,118.20 180.00,118.51 180.00,117.01 C180.00,116.15 173.90,111.21 170.33,109.17 C169.69,108.80 169.01,107.88 168.83,107.12 C168.22,104.56 163.93,101.00 161.45,101.00 C158.47,101.00 158.46,101.25 161.09,106.68 C163.14,110.93 167.53,114.97 170.15,115.03 C170.89,115.05 172.37,115.72 173.44,116.53 ZM 194.45 71.36 C194.05,71.56 193.59,71.97 192.92,72.57 C191.77,73.61 190.21,75.96 189.44,77.79 C189.30,78.13 189.18,78.44 189.07,78.74 L 189.07 78.74 C187.68,82.26 187.00,86.67 187.00,92.05 C187.00,98.34 186.67,100.19 185.46,100.65 C183.86,101.27 180.00,98.45 180.00,96.66 C180.00,96.09 179.08,93.73 177.96,91.41 C176.85,89.12 175.48,87.46 173.61,86.28 C175.23,87.25 176.48,88.54 177.46,90.20 C179.80,94.17 183.11,98.00 184.18,98.00 C184.63,98.00 185.00,94.44 185.00,90.08 C185.00,82.26 187.26,74.19 189.92,72.55 C190.51,72.18 191.00,71.48 191.00,70.99 C191.00,70.04 185.87,67.45 182.50,66.68 C181.40,66.44 182.22,66.18 184.32,66.12 C188.75,65.98 190.65,66.85 195.19,71.10 C195.25,71.15 195.30,71.20 195.36,71.25 C195.05,71.14 194.77,71.17 194.45,71.36 ZM 197.00 106.01 C197.00,109.28 197.35,110.00 198.93,110.00 C201.35,110.00 204.08,107.36 203.42,105.66 C203.15,104.95 203.85,103.54 204.96,102.53 C206.24,101.37 207.00,99.44 207.00,97.32 L 207.00 93.95 L 204.00 95.50 C202.35,96.35 201.00,97.61 201.00,98.29 C201.00,98.96 200.10,100.08 199.00,100.77 C197.54,101.68 197.00,103.10 197.00,106.01 ZM 367.00 108.62 C367.00,108.83 366.66,109.00 366.25,108.99 C365.84,108.98 364.75,107.18 363.82,104.99 C362.90,102.79 361.33,100.70 360.32,100.34 C359.32,99.99 357.73,99.04 356.80,98.24 C355.28,96.93 354.85,97.05 352.80,99.28 C350.29,102.01 341.10,104.33 336.88,103.30 C333.83,102.55 331.00,100.11 331.00,98.21 C331.00,96.98 329.81,96.83 324.25,97.31 C316.17,98.01 317.02,97.36 325.71,96.18 L 331.92 95.34 L 332.91 98.18 C334.25,102.01 336.18,102.55 343.92,101.22 C348.61,100.43 350.89,99.51 351.87,98.05 C353.71,95.30 356.61,95.47 360.67,98.56 C363.32,100.59 367.00,106.43 367.00,108.62 ZM 312.96 166.39 C312.95,168.10 312.27,170.62 311.46,172.00 L 309.98 174.50 L 310.58 171.50 C310.90,169.85 311.35,167.92 311.57,167.21 C311.79,166.50 311.41,165.01 310.73,163.90 C309.66,162.14 309.86,161.56 312.31,159.44 C313.85,158.10 316.32,157.00 317.81,157.00 C319.49,157.00 322.29,155.88 325.57,154.11 C324.13,154.91 322.69,155.68 321.25,156.40 C317.26,158.39 314.00,160.24 314.00,160.51 C314.00,161.65 316.76,161.11 321.10,159.24 C313.45,163.13 312.99,163.76 312.96,166.39 ZM 299.51 129.80 C298.22,130.92 296.12,132.39 294.84,133.05 L 292.50 134.27 L 294.92 131.64 L 297.35 129.00 L 294.67 129.00 C292.40,129.00 292.02,128.59 292.12,126.25 C292.19,124.56 292.41,124.17 292.69,125.25 C293.20,127.19 294.54,127.55 295.50,126.00 C296.42,124.51 300.71,124.79 301.32,126.39 C301.61,127.15 300.80,128.69 299.51,129.80 ZM 294.79 109.18 C293.84,112.65 292.85,116.40 292.58,117.50 C291.97,119.92 292.76,110.96 293.60,105.84 C294.13,102.62 294.61,102.11 297.70,101.53 C299.63,101.17 301.40,101.07 301.64,101.30 C301.87,101.54 300.82,101.99 299.28,102.30 C296.84,102.79 296.29,103.63 294.79,109.18 ZM 203.22 84.44 C204.44,85.30 205.53,86.00 205.63,86.00 C205.73,86.00 205.33,84.43 204.74,82.50 C204.15,80.57 203.06,79.00 202.33,79.00 C200.19,79.00 200.80,82.75 203.22,84.44 ZM 312.50 100.00 C311.73,101.25 309.31,101.30 308.55,100.09 C307.93,99.07 315.79,97.45 316.73,98.40 C317.06,98.73 316.38,99.00 315.23,99.00 C314.07,99.00 312.84,99.45 312.50,100.00 ZM 295.09 138.69 C295.70,139.30 296.02,140.62 295.81,141.64 C295.45,143.43 295.42,143.43 294.72,141.67 C293.61,138.84 293.79,137.39 295.09,138.69 ZM 330.72 151.06 C339.13,145.70 348.39,138.10 350.24,134.37 C348.60,138.06 340.38,145.02 330.72,151.06 ZM 156.44 98.28 C156.19,96.49 156.08,94.56 156.09,92.50 C156.13,88.50 156.28,86.28 157.20,85.09 C157.06,85.35 156.93,85.65 156.80,86.02 C156.31,87.33 156.04,90.91 156.21,93.96 ZM 338.87 149.26 C343.49,146.07 347.23,142.91 349.51,140.19 C347.10,143.07 343.50,146.13 338.87,149.26 ZM 351.48 130.05 C352.19,129.33 353.13,128.88 353.88,129.16 C353.16,128.89 352.21,129.34 351.48,130.05 ZM 372.48 178.03 C372.84,177.43 372.46,177.11 371.53,177.06 C372.47,177.11 372.86,177.42 372.49,178.02 ZM 369.73 212.83 L 369.73 212.83 C369.85,211.03 369.96,209.14 370.07,207.14 C369.96,209.14 369.85,211.03 369.73,212.83 Z" fill="rgb(215,220,59)"/>
<path d="M 326.96 156.41 C331.28,154.14 335.33,151.69 338.87,149.26 C343.50,146.13 347.10,143.07 349.51,140.19 C352.66,136.42 355.33,129.68 353.88,129.16 C353.16,128.89 352.21,129.34 351.48,130.05 C350.68,130.83 350.14,131.92 350.44,132.71 C350.61,133.14 350.53,133.70 350.24,134.37 C348.39,138.10 339.13,145.70 330.72,151.06 C329.04,152.11 327.31,153.14 325.57,154.11 C322.29,155.88 319.49,157.00 317.81,157.00 C316.32,157.00 313.85,158.10 312.31,159.44 C309.86,161.56 309.66,162.14 310.73,163.90 C310.86,164.11 310.98,164.33 311.08,164.56 C310.54,164.24 309.46,164.00 308.38,164.00 C304.59,164.00 302.00,162.21 302.00,159.59 C302.00,157.51 299.80,151.77 295.56,142.75 C295.63,142.53 295.71,142.16 295.81,141.64 C296.02,140.62 295.70,139.30 295.09,138.69 C294.20,137.80 293.84,138.19 294.04,139.43 C293.05,136.95 292.85,135.29 293.47,133.76 L 294.84 133.05 C296.12,132.39 298.22,130.92 299.51,129.80 C300.80,128.69 301.61,127.15 301.32,126.39 C300.71,124.79 296.42,124.51 295.50,126.00 C294.54,127.55 293.20,127.19 292.69,125.25 C292.41,124.17 292.19,124.56 292.12,126.25 C292.02,128.56 292.39,128.99 294.58,129.00 L 291.81 129.00 L 292.35 119.25 C292.37,118.81 292.40,118.36 292.42,117.91 C292.46,117.90 292.51,117.77 292.58,117.50 C292.85,116.40 293.84,112.65 294.79,109.18 C296.29,103.63 296.84,102.79 299.28,102.30 C300.82,101.99 301.87,101.54 301.64,101.30 C301.43,101.10 300.07,101.15 298.46,101.40 C298.88,101.32 299.34,101.23 299.85,101.14 C302.20,100.70 306.10,99.92 309.59,99.20 C308.83,99.50 308.39,99.82 308.55,100.09 C309.31,101.30 311.73,101.25 312.50,100.00 C312.84,99.45 314.07,99.00 315.23,99.00 C316.38,99.00 317.06,98.73 316.73,98.40 C316.47,98.13 315.66,98.07 314.64,98.14 C316.07,97.85 317.64,97.55 319.18,97.27 C317.72,97.66 319.33,97.74 324.25,97.31 C329.81,96.83 331.00,96.98 331.00,98.21 C331.00,100.11 333.83,102.55 336.88,103.30 C341.10,104.33 350.29,102.01 352.80,99.28 C354.85,97.05 355.28,96.93 356.80,98.24 C357.73,99.04 359.32,99.99 360.32,100.34 C361.33,100.70 362.90,102.79 363.82,104.99 C364.75,107.18 365.84,108.98 366.25,108.99 C366.47,108.99 366.67,108.95 366.80,108.87 C367.18,110.23 367.54,111.75 367.92,113.50 C368.63,116.80 369.64,120.85 370.16,122.50 C370.67,124.15 371.51,128.43 372.02,132.00 C372.53,135.57 373.65,141.43 374.51,145.00 C375.37,148.57 376.45,154.45 376.90,158.06 C377.36,161.67 378.16,165.49 378.70,166.56 C380.27,169.70 382.38,179.95 381.62,180.72 C381.23,181.11 378.57,182.43 375.70,183.66 C372.84,184.89 370.63,186.43 370.79,187.08 C370.95,187.71 370.64,196.32 370.10,206.42 C370.65,196.09 370.86,187.53 370.57,187.23 C370.26,186.93 370.51,186.09 371.11,185.37 C372.00,184.30 370.94,184.17 365.35,184.69 C359.04,185.28 358.61,185.20 359.87,183.66 C360.63,182.75 362.03,182.00 363.00,182.00 C364.31,182.00 366.95,181.13 369.13,180.13 C370.93,179.47 372.02,178.78 372.46,178.06 C372.47,178.05 372.47,178.04 372.48,178.03 C372.86,177.42 372.47,177.11 371.53,177.06 C369.96,176.98 366.82,177.66 363.00,179.02 C359.98,180.10 354.90,181.27 351.72,181.63 C348.54,182.00 345.70,182.68 345.41,183.15 C345.12,183.62 345.54,184.00 346.33,184.00 C347.13,184.00 348.05,184.68 348.36,185.50 C348.85,186.77 347.39,187.00 338.72,187.00 C321.25,187.00 310.10,183.54 310.03,178.08 C310.01,176.36 309.72,175.86 309.42,176.34 C309.62,175.40 309.85,174.38 310.10,173.32 C310.88,170.07 311.40,167.05 311.47,165.63 C311.64,166.26 311.68,166.84 311.57,167.21 C311.35,167.92 310.90,169.85 310.58,171.50 L 309.98 174.50 L 311.46 172.00 C312.27,170.62 312.95,168.10 312.96,166.39 C312.99,163.76 313.45,163.13 321.10,159.24 C322.83,158.50 324.81,157.55 326.96,156.41 ZM 170.14 84.80 C169.47,84.07 168.76,83.91 167.92,84.31 C166.63,84.10 165.19,83.96 163.59,83.89 C159.05,83.68 157.92,83.77 157.20,85.09 C157.14,85.17 157.08,85.25 157.03,85.34 C157.04,85.29 157.05,85.25 157.06,85.20 C159.67,74.24 171.22,66.00 183.97,66.00 C185.94,66.00 187.41,66.14 188.78,66.60 C189.86,66.95 190.89,67.53 192.07,68.41 C192.99,69.10 194.00,69.99 195.19,71.10 C194.00,69.99 192.99,69.10 192.07,68.41 C190.91,67.54 189.88,66.97 188.78,66.60 C187.48,66.17 186.10,66.06 184.32,66.12 C182.22,66.18 181.40,66.44 182.50,66.68 C185.87,67.45 191.00,70.04 191.00,70.99 C191.00,71.48 190.51,72.18 189.92,72.55 C187.26,74.19 185.00,82.26 185.00,90.08 C185.00,94.44 184.63,98.00 184.18,98.00 C183.11,98.00 179.80,94.17 177.46,90.20 C176.48,88.54 175.23,87.25 173.61,86.28 C172.61,85.66 171.47,85.17 170.14,84.80 ZM 173.44 116.53 C172.37,115.72 170.89,115.05 170.15,115.03 C167.53,114.97 163.14,110.93 161.09,106.68 C158.46,101.25 158.47,101.00 161.45,101.00 C163.93,101.00 168.22,104.56 168.83,107.12 C169.01,107.88 169.69,108.80 170.33,109.17 C173.90,111.21 180.00,116.15 180.00,117.01 C180.00,118.51 175.64,118.20 173.44,116.53 ZM 197.00 106.01 C197.00,103.10 197.54,101.68 199.00,100.77 C200.10,100.08 201.00,98.96 201.00,98.29 C201.00,97.61 202.35,96.35 204.00,95.50 L 207.00 93.95 L 207.00 97.32 C207.00,99.44 206.24,101.37 204.96,102.53 C203.85,103.54 203.15,104.95 203.42,105.66 C204.08,107.36 201.35,110.00 198.93,110.00 C197.35,110.00 197.00,109.28 197.00,106.01 ZM 316.32 119.75 C320.14,117.41 324.41,114.81 325.81,113.96 C327.22,113.11 328.54,111.87 328.76,111.21 C329.65,108.56 325.58,110.31 316.29,116.57 L 315.07 117.39 C308.04,122.12 306.03,123.47 306.20,123.85 C306.27,124.00 306.69,124.00 307.27,124.00 L 307.27 124.00 L 307.33 124.00 C307.39,124.00 307.46,124.00 307.53,124.00 C308.55,124.00 312.51,122.09 316.32,119.75 ZM 203.22 84.44 C200.80,82.75 200.19,79.00 202.33,79.00 C203.06,79.00 204.15,80.57 204.74,82.50 C205.33,84.43 205.73,86.00 205.63,86.00 C205.53,86.00 204.44,85.30 203.22,84.44 ZM 174.98 118.95 C173.50,118.48 171.96,117.82 170.26,116.97 C164.61,114.15 160.98,110.64 158.15,105.30 C157.45,103.98 156.93,101.90 156.61,99.49 L 156.63 99.49 C158.03,107.34 162.26,112.72 169.97,116.75 C171.79,117.71 173.43,118.44 174.98,118.95 ZM 364.93 103.68 C363.66,101.64 362.03,99.60 360.67,98.56 C362.51,99.97 363.83,101.47 364.93,103.68 ZM 293.10 109.38 C293.25,107.82 293.41,106.57 293.54,105.84 C293.82,104.27 294.02,103.37 294.63,102.76 C294.10,103.37 293.85,104.29 293.60,105.84 C293.43,106.90 293.25,108.13 293.10,109.38 ZM 294.44 132.17 C294.66,131.89 294.90,131.60 295.17,131.31 L 297.35 129.00 L 294.92 131.64 ZM 365.54 238.46 C365.96,237.22 366.34,235.98 366.68,234.70 C366.70,234.60 366.73,234.51 366.75,234.41 C368.25,228.71 369.04,222.46 369.62,214.36 L 369.62 214.36 L 369.62 214.36 C368.91,224.40 367.86,231.60 365.54,238.46 ZM 369.73 212.83 C369.84,211.10 369.95,209.29 370.05,207.38 C369.95,209.29 369.84,211.11 369.73,212.84 Z" fill="rgb(223,224,28)"/>
<path d="M 175.00 155.82 C175.00,154.24 173.03,154.12 168.88,155.45 L 164.50 156.85 L 169.00 156.26 C171.07,155.99 172.17,155.87 172.59,156.01 L 170.00 156.41 C168.07,156.70 163.47,157.25 159.77,157.62 C153.72,158.22 152.99,158.10 152.45,156.39 C152.12,155.35 151.41,153.68 150.87,152.67 C148.95,149.11 151.44,147.95 166.25,145.52 C168.31,145.19 170.00,144.49 170.00,143.98 C170.00,143.47 166.83,142.09 162.95,140.92 C157.57,139.28 155.98,138.38 156.23,137.14 C156.49,135.84 157.72,135.52 162.13,135.61 C166.62,135.69 167.53,135.63 168.34,133.84 C167.46,136.74 168.82,137.89 172.50,137.78 C174.17,137.74 174.13,137.66 172.25,137.29 C171.18,137.09 170.51,136.82 170.23,136.44 C171.74,137.22 182.90,139.88 187.33,140.49 C189.99,140.85 196.82,142.69 202.50,144.57 C217.03,149.38 223.60,150.74 238.75,152.06 C260.71,153.99 263.52,153.55 279.38,145.76 C292.17,139.48 293.00,138.89 293.00,136.19 C293.00,135.75 293.06,135.28 293.18,134.82 C292.98,136.07 293.27,137.50 294.04,139.43 C294.14,140.01 294.37,140.77 294.72,141.67 C295.21,142.92 295.38,143.29 295.56,142.75 C299.80,151.77 302.00,157.51 302.00,159.59 C302.00,161.22 303.01,162.53 304.68,163.29 C304.38,163.18 304.10,163.06 303.87,162.93 C302.65,162.28 301.41,162.21 300.69,162.77 C297.68,165.08 258.20,178.54 250.25,179.97 C239.83,181.84 230.48,179.54 211.00,170.31 C188.22,159.52 182.05,158.67 170.94,164.74 C168.53,166.06 166.83,166.90 165.61,167.33 C165.49,167.12 165.29,166.85 165.00,166.50 C164.24,165.58 164.09,164.49 164.63,163.70 C164.68,163.62 164.72,163.56 164.76,163.50 C165.93,162.42 167.63,160.95 170.00,158.90 L 172.69 156.56 C172.56,156.80 172.32,157.10 172.00,157.50 C170.59,159.22 170.63,159.24 172.75,157.92 C173.99,157.15 175.00,156.20 175.00,155.82 ZM 293.10 109.38 C292.58,113.50 292.22,117.94 292.42,117.91 C292.40,118.36 292.37,118.81 292.35,119.25 L 291.84 128.52 C288.11,128.19 280.40,127.88 272.50,127.76 C249.26,127.42 247.87,126.88 245.65,117.18 C244.80,113.51 243.85,108.70 243.52,106.50 C243.19,104.30 242.20,100.13 241.32,97.23 C241.12,96.57 240.94,95.92 240.79,95.31 C241.25,95.53 241.87,95.19 242.57,94.24 C243.30,93.24 243.48,92.64 243.12,92.17 C243.23,92.24 243.34,92.30 243.45,92.37 C246.64,94.47 267.91,102.36 274.50,103.89 C279.28,105.01 283.81,104.75 295.07,102.37 C294.90,102.48 294.76,102.61 294.63,102.76 C294.02,103.37 293.82,104.27 293.54,105.84 C293.41,106.57 293.25,107.82 293.10,109.38 ZM 353.24 87.30 C352.70,88.92 353.16,90.47 354.67,91.46 L 354.69 91.47 L 354.50 91.39 C352.91,90.75 352.60,91.80 353.61,94.42 C353.94,95.29 354.91,96.00 355.76,96.00 C356.81,96.00 358.37,96.82 359.95,98.03 C356.27,95.46 353.60,95.47 351.87,98.05 C350.89,99.51 348.61,100.43 343.92,101.22 C336.18,102.55 334.25,102.01 332.91,98.18 L 331.92 95.34 L 330.90 95.48 C332.67,94.64 332.89,92.89 331.07,91.07 C329.93,89.93 328.40,89.00 327.67,89.00 C326.95,89.00 325.30,87.89 324.03,86.53 C321.95,84.32 321.77,83.44 322.34,78.03 C322.69,74.71 322.64,71.99 322.23,71.98 C322.21,71.98 322.17,71.97 322.14,71.96 C322.49,71.76 323.29,69.27 323.96,66.25 C324.67,63.09 325.71,59.38 326.29,58.00 C326.86,56.62 327.25,55.16 327.16,54.75 C327.07,54.34 327.57,54.00 328.28,54.00 C328.98,54.00 330.44,55.91 331.53,58.25 C333.90,63.35 337.26,64.24 342.33,61.10 L 345.62 59.07 L 346.89 62.56 C347.58,64.48 349.25,66.77 350.60,67.66 C351.94,68.54 352.57,69.29 352.76,70.60 C352.78,71.15 352.69,71.82 352.53,72.67 C351.98,75.63 352.21,76.13 354.56,77.02 C356.82,77.88 357.11,78.43 356.53,80.77 C356.15,82.27 355.20,84.21 354.42,85.08 C353.79,85.78 353.41,86.54 353.24,87.30 ZM 294.87 129.00 L 297.35 129.00 L 296.92 129.46 ZM 162.60 166.97 C162.24,166.51 162.25,166.10 163.10,165.13 C162.62,165.85 162.46,166.48 162.60,166.97 ZM 170.08 136.01 C170.06,135.55 170.44,134.96 171.20,134.20 C171.29,134.11 171.38,134.03 171.48,133.95 C171.59,133.88 171.70,133.83 171.81,133.77 C171.51,133.98 171.23,134.23 170.98,134.52 C170.51,135.09 170.18,135.66 170.08,136.01 ZM 168.93 132.33 C169.36,131.26 170.18,129.79 171.11,128.39 C170.86,128.81 170.59,129.25 170.32,129.72 C170.07,130.15 169.84,130.56 169.64,130.94 C169.36,131.44 169.13,131.90 168.93,132.33 ZM 364.93 103.68 C364.67,103.17 364.41,102.70 364.13,102.25 C364.64,102.96 365.06,103.66 365.32,104.31 C365.34,104.34 365.35,104.38 365.36,104.41 C365.22,104.17 365.08,103.93 364.93,103.68 ZM 179.46 129.85 C178.73,127.08 178.08,125.19 177.38,124.16 C178.07,125.11 178.70,126.97 179.46,129.85 ZM 319.38 97.22 C319.31,97.24 319.24,97.25 319.18,97.27 C317.64,97.55 316.07,97.85 314.64,98.14 L 314.61 98.14 C316.34,97.79 317.93,97.49 319.38,97.22 ZM 309.70 99.16 C309.67,99.17 309.63,99.19 309.59,99.20 C308.87,99.35 308.13,99.50 307.39,99.65 C308.18,99.48 308.95,99.32 309.70,99.16 ZM 294.44 132.17 L 294.35 132.26 C294.55,131.98 294.77,131.72 295.00,131.50 C294.80,131.73 294.61,131.95 294.44,132.17 ZM 174.48 133.06 C174.61,133.07 174.74,133.09 174.87,133.11 C174.71,133.08 174.55,133.07 174.39,133.06 C174.42,133.06 174.45,133.06 174.48,133.06 ZM 240.35 91.32 C240.32,91.35 240.30,91.38 240.28,91.41 C240.29,91.38 240.31,91.36 240.32,91.34 C240.33,91.34 240.34,91.33 240.35,91.32 Z" fill="rgb(233,175,104)"/>
<path d="M 0.00 0.00 L 221.96 0.00 L 222.49 2.25 C222.77,3.49 226.87,23.85 231.58,47.49 C236.29,71.13 240.23,90.51 240.32,90.54 C240.37,90.56 240.74,90.78 241.28,91.11 C240.86,91.01 240.55,91.08 240.35,91.32 C240.34,91.33 240.33,91.34 240.32,91.34 C240.31,91.36 240.29,91.38 240.28,91.41 C240.09,91.70 240.00,92.17 240.00,92.83 C240.00,94.24 240.30,95.08 240.79,95.31 C240.94,95.92 241.12,96.57 241.32,97.23 C242.20,100.13 243.19,104.30 243.52,106.50 C243.85,108.70 244.80,113.51 245.65,117.18 C247.07,123.36 248.15,125.82 254.76,126.89 C252.96,126.75 251.67,126.61 251.10,126.49 L 247.69 125.73 L 248.35 131.33 C248.91,136.07 248.74,137.06 247.25,137.82 C246.29,138.31 237.95,140.19 228.72,141.99 C212.87,145.10 212.03,145.38 213.54,147.04 C214.17,147.74 215.60,148.41 217.77,149.05 C213.27,147.99 208.58,146.58 202.50,144.57 C196.82,142.69 189.99,140.85 187.33,140.49 C182.90,139.88 171.74,137.22 170.23,136.44 C170.13,136.31 170.08,136.17 170.08,136.01 C170.18,135.66 170.51,135.09 170.98,134.52 C171.23,134.23 171.51,133.98 171.81,133.77 C172.72,133.31 173.58,133.07 174.39,133.06 C174.55,133.07 174.71,133.08 174.87,133.11 C175.88,133.26 176.87,133.73 177.65,134.51 C180.19,137.05 180.89,135.25 179.46,129.85 C178.73,127.08 178.08,125.19 177.38,124.16 C176.72,123.19 176.00,122.99 175.11,123.54 C174.04,124.09 172.76,125.71 171.11,128.39 C170.18,129.79 169.36,131.26 168.93,132.33 C168.68,132.88 168.48,133.39 168.34,133.84 C167.53,135.63 166.62,135.69 162.13,135.61 C157.72,135.52 156.49,135.84 156.23,137.14 C155.98,138.38 157.57,139.28 162.95,140.92 C166.83,142.09 170.00,143.47 170.00,143.98 C170.00,144.49 168.31,145.19 166.25,145.52 C151.44,147.95 148.95,149.11 150.87,152.67 C151.41,153.68 152.12,155.35 152.45,156.39 C152.66,157.07 152.91,157.49 153.49,157.72 C148.26,157.97 143.25,158.39 141.00,158.91 C132.67,160.83 132.34,160.68 131.15,154.25 C129.90,147.53 125.17,124.54 109.06,47.00 C104.47,24.88 104.33,23.34 106.75,22.59 C108.64,22.00 115.44,20.66 186.00,6.93 C200.57,4.10 213.18,1.39 214.00,0.92 C214.84,0.44 168.33,0.05 107.75,0.03 ZM 187.86 118.94 C188.51,118.89 189.45,118.59 190.45,118.15 C191.04,117.93 191.59,117.69 192.07,117.45 C193.60,116.67 194.69,115.95 195.41,115.19 C196.81,114.28 198.49,113.25 199.80,112.50 C201.94,111.27 204.26,108.62 205.81,105.64 C211.03,95.57 208.34,77.78 201.20,75.18 C200.26,74.83 198.84,73.98 197.46,72.97 C197.31,72.80 197.16,72.64 197.00,72.50 L 196.96 72.47 C196.25,71.82 195.77,71.40 195.36,71.25 C195.30,71.20 195.25,71.15 195.19,71.10 C194.94,70.87 194.70,70.64 194.47,70.43 C193.58,69.63 192.80,68.96 192.07,68.41 L 192.07 68.41 C190.91,67.54 189.88,66.97 188.78,66.60 L 188.78 66.60 C187.41,66.14 185.94,66.00 183.97,66.00 C171.22,66.00 159.67,74.24 157.06,85.20 C157.05,85.25 157.04,85.29 157.03,85.34 C156.26,86.58 156.13,88.76 156.09,92.50 C156.08,94.56 156.19,96.49 156.44,98.28 L 156.50 99.50 L 156.61 99.49 C156.93,101.90 157.45,103.98 158.15,105.30 C160.98,110.64 164.61,114.15 170.26,116.97 C171.96,117.82 173.50,118.48 174.98,118.95 L 174.98 118.95 C178.49,120.12 181.60,120.21 185.70,119.41 C186.40,119.29 187.13,119.13 187.86,118.94 ZM 168.74 63.40 C168.21,60.64 168.69,60.58 175.75,62.59 C179.63,63.70 178.44,60.30 174.49,59.00 L 170.98 57.84 L 172.97 55.31 C174.49,53.38 174.72,52.34 173.94,50.89 C172.71,48.58 171.22,48.53 166.03,50.61 C161.55,52.40 161.48,53.19 165.12,61.75 C167.13,66.47 169.53,67.57 168.74,63.40 ZM 169.43 42.02 C173.27,40.57 172.53,39.00 168.00,39.00 C164.40,39.00 164.00,38.75 164.00,36.50 C164.00,34.70 164.54,34.00 165.92,34.00 C168.90,34.00 171.00,32.92 171.00,31.39 C171.00,30.47 169.82,30.00 167.50,30.00 C164.73,30.00 164.00,29.60 164.00,28.11 C164.00,26.65 165.06,26.02 168.67,25.36 C171.23,24.89 173.54,23.88 173.79,23.12 C174.17,22.00 173.16,21.87 168.38,22.47 C165.14,22.87 162.16,23.41 161.75,23.66 C160.48,24.44 160.88,40.48 162.20,41.80 C163.65,43.25 166.01,43.33 169.43,42.02 ZM 193.00 60.64 C193.00,59.90 191.62,58.89 189.92,58.39 C185.63,57.15 185.79,55.56 190.25,55.19 C194.77,54.82 195.11,53.28 191.00,51.85 C189.35,51.27 188.00,50.13 188.00,49.30 C188.00,48.33 188.57,48.00 189.59,48.40 C193.41,49.86 196.00,50.16 196.00,49.13 C196.00,47.65 190.64,45.00 187.64,45.00 C185.37,45.00 185.09,45.55 183.98,52.09 C182.71,59.62 183.03,60.57 187.00,61.28 C191.74,62.13 193.00,62.00 193.00,60.64 ZM 136.00 42.92 C136.00,41.98 136.74,40.93 137.64,40.58 C137.73,40.55 137.81,40.52 137.89,40.49 C138.52,40.24 138.89,40.10 139.19,40.19 C139.67,40.32 139.99,41.01 140.90,42.75 C141.54,43.99 142.50,45.00 143.04,45.00 C144.62,45.00 144.14,41.62 141.60,34.87 C139.85,30.19 138.72,28.50 137.35,28.50 C135.83,28.50 135.19,30.01 133.77,37.00 C131.87,46.37 132.16,49.84 134.57,46.56 C135.36,45.49 136.00,43.85 136.00,42.92 ZM 151.37 39.00 C152.06,39.00 153.49,39.66 154.56,40.47 C157.07,42.37 159.00,42.39 159.00,40.52 C159.00,39.71 157.15,38.10 154.88,36.94 L 150.76 34.84 L 153.88 31.62 C155.60,29.85 157.00,28.09 157.00,27.70 C157.00,26.33 154.23,27.03 151.63,29.07 L 149.00 31.15 L 149.00 28.57 C149.00,26.85 148.46,26.00 147.36,26.00 C145.91,26.00 145.79,26.98 146.40,34.20 C147.13,43.04 149.24,47.96 149.81,42.17 C149.99,40.43 150.69,39.00 151.37,39.00 ZM 220.00 121.99 C220.00,121.43 219.44,120.07 218.75,118.96 C217.72,117.29 217.76,116.77 219.00,115.98 C221.19,114.59 221.56,114.74 222.82,117.50 C223.90,119.88 227.00,121.04 227.00,119.06 C227.00,117.20 218.60,105.00 217.32,105.00 C215.59,105.00 215.69,107.01 217.53,109.44 C218.34,110.51 219.00,111.75 219.00,112.19 C219.00,113.60 215.73,113.06 213.82,111.34 C211.07,108.85 210.46,110.48 212.47,114.94 C215.12,120.82 220.00,125.38 220.00,121.99 ZM 163.00 131.61 C163.00,130.84 161.88,129.93 160.50,129.59 C159.12,129.24 158.00,128.24 158.00,127.35 C158.00,126.04 158.73,125.86 162.00,126.38 C165.17,126.89 166.00,126.71 166.00,125.53 C166.00,124.71 164.88,123.76 163.50,123.41 C162.12,123.07 161.00,122.11 161.00,121.28 C161.00,120.25 161.54,120.01 162.75,120.51 C166.70,122.13 168.00,122.21 168.00,120.80 C168.00,119.65 162.29,116.00 160.48,116.00 C159.76,116.00 154.00,127.80 154.00,129.28 C154.00,130.65 158.12,132.70 161.25,132.89 C162.21,132.95 163.00,132.37 163.00,131.61 ZM 187.21 134.00 C186.92,132.76 188.42,132.88 193.75,134.54 C195.44,135.06 196.00,134.83 196.00,133.62 C196.00,132.73 195.66,131.99 195.25,131.98 C192.91,131.94 191.96,130.22 192.91,127.74 C194.35,123.94 192.22,122.44 187.54,123.99 C184.15,125.11 184.00,125.35 184.00,129.91 C184.00,132.53 184.31,134.98 184.69,135.35 C185.73,136.39 187.54,135.42 187.21,134.00 ZM 124.50 41.13 C124.50,33.67 125.35,32.05 129.25,32.02 C130.21,32.01 131.00,31.28 131.00,30.41 C131.00,29.07 130.19,28.92 125.94,29.51 C118.90,30.48 116.05,31.33 115.99,32.50 C115.96,33.05 117.08,33.64 118.47,33.82 C120.81,34.11 121.00,34.52 121.01,39.32 C121.03,45.73 121.90,49.20 123.38,48.70 C124.07,48.47 124.50,45.56 124.50,41.13 ZM 155.00 70.00 C155.00,66.69 156.92,66.00 159.04,68.54 C159.86,69.53 160.66,69.74 161.28,69.12 C162.45,67.95 153.32,55.68 151.93,56.54 C150.87,57.20 150.69,65.20 151.62,69.88 C152.44,73.94 155.00,74.03 155.00,70.00 ZM 149.00 80.50 C149.00,79.51 148.01,79.00 146.07,79.00 C140.16,79.00 138.13,73.64 142.50,69.59 C145.50,66.80 145.63,66.00 143.07,66.00 C142.01,66.00 140.21,67.19 139.07,68.63 C134.59,74.33 138.04,82.00 145.07,82.00 C147.90,82.00 149.00,81.58 149.00,80.50 ZM 206.57 124.96 C203.91,120.07 203.88,119.81 205.65,118.51 C209.11,115.99 205.91,115.55 201.42,117.94 C196.92,120.32 195.99,122.68 199.72,122.29 C201.04,122.15 202.12,122.99 202.93,124.79 C205.33,130.14 207.12,132.28 208.27,131.13 C209.04,130.36 208.56,128.61 206.57,124.96 ZM 160.96 157.49 C164.41,157.13 168.28,156.67 170.00,156.41 L 172.59 156.01 C172.85,156.09 172.86,156.27 172.69,156.56 L 170.00 158.90 C167.63,160.95 165.93,162.42 164.76,163.50 C164.86,163.33 164.86,163.27 164.76,163.33 C165.67,162.47 166.87,161.45 168.40,160.21 C169.28,159.50 170.00,158.54 170.00,158.06 C170.00,157.59 166.03,157.43 160.96,157.49 ZM 166.24 54.75 C166.47,54.06 167.75,53.37 169.08,53.22 C171.42,52.95 171.44,52.99 169.56,54.47 C167.21,56.32 165.68,56.45 166.24,54.75 ZM 243.11 152.43 C247.14,152.61 251.61,152.71 255.09,152.65 L 261.29 152.56 C256.64,153.28 251.42,153.10 243.11,152.43 ZM 293.75 491.86 C294.34,491.53 294.93,491.20 295.51,490.87 C287.65,495.33 280.52,499.00 279.06,499.00 C280.13,499.00 286.75,495.79 293.75,491.86 ZM 165.61 167.34 L 165.61 167.33 C166.52,167.01 167.69,166.46 169.22,165.67 C167.69,166.47 166.52,167.01 165.61,167.34 ZM 163.15 165.06 C163.13,165.09 163.11,165.11 163.10,165.13 C163.09,165.14 163.08,165.15 163.08,165.16 C163.10,165.13 163.12,165.09 163.15,165.06 Z" fill="rgb(244,219,190)"/>
<path d="M 0.00 250.00 L 0.00 0.00 L 107.75 0.03 C168.33,0.05 214.84,0.44 214.00,0.92 C213.18,1.39 200.57,4.10 186.00,6.93 C115.44,20.66 108.64,22.00 106.75,22.59 C104.33,23.34 104.47,24.88 109.06,47.00 C125.17,124.54 129.90,147.53 131.15,154.25 C132.34,160.68 132.67,160.83 141.00,158.91 C146.69,157.60 170.00,156.92 170.00,158.06 C170.00,158.54 169.28,159.50 168.40,160.21 C163.03,164.55 161.78,166.18 162.92,167.32 C163.81,168.21 165.72,167.60 170.94,164.74 C182.05,158.67 188.22,159.52 211.00,170.31 C230.48,179.54 239.83,181.84 250.25,179.97 C258.20,178.54 297.68,165.08 300.69,162.77 C301.41,162.21 302.65,162.28 303.87,162.93 C304.97,163.52 307.00,164.00 308.38,164.00 C309.75,164.00 311.12,164.38 311.40,164.84 C311.69,165.31 311.11,169.12 310.10,173.32 C309.10,177.52 308.43,181.10 308.61,181.28 C308.79,181.46 305.69,184.83 301.72,188.77 L 294.50 195.93 L 274.50 201.99 C263.50,205.32 252.70,208.67 250.50,209.43 C248.30,210.19 240.88,212.46 234.00,214.48 C208.73,221.91 189.99,228.21 186.81,230.35 C182.82,233.04 179.33,238.06 177.99,243.04 C177.36,245.39 177.08,266.79 177.24,300.64 L 177.50 354.50 L 183.22 354.16 L 188.95 353.82 L 187.40 359.16 C184.02,370.79 175.62,380.78 161.08,390.44 C151.55,396.78 149.69,400.44 154.41,403.53 C156.67,405.01 157.78,404.83 172.66,400.60 C198.88,393.15 199.17,393.02 201.71,388.07 C204.64,382.32 204.65,382.32 207.42,384.92 L 209.83 387.19 L 219.17 384.57 C234.16,380.36 233.00,381.52 233.00,370.73 C233.00,365.61 232.32,358.83 231.50,355.66 C229.61,348.39 229.58,348.66 232.25,347.47 C234.95,346.27 235.33,350.36 228.46,307.09 C225.46,288.17 223.00,271.28 223.00,269.57 C223.00,267.85 223.66,265.51 224.46,264.36 C227.00,260.73 226.26,260.91 272.39,253.01 C282.23,251.33 290.46,250.13 290.68,250.35 C290.90,250.57 287.41,258.79 282.94,268.62 C278.46,278.46 273.77,288.75 272.52,291.50 C271.27,294.25 268.87,299.42 267.19,303.00 C255.42,328.04 251.88,336.83 250.96,343.26 C249.73,351.93 251.43,360.68 256.34,371.05 C258.28,375.15 265.04,390.42 271.36,405.00 C286.22,439.27 290.54,448.60 291.94,449.46 C292.57,449.85 294.18,449.46 295.51,448.59 C296.84,447.71 298.21,447.00 298.56,447.00 C299.56,447.00 297.92,457.10 296.21,461.50 C293.80,467.70 288.37,475.77 280.86,484.28 C277.09,488.57 274.00,492.63 274.00,493.31 C274.00,495.55 277.07,499.00 279.06,499.00 C282.48,499.00 316.97,478.89 319.23,475.58 C319.64,474.98 319.98,473.15 320.00,471.50 C320.05,466.59 321.19,465.63 324.63,467.60 C327.58,469.30 327.59,469.29 337.79,463.47 C349.28,456.91 349.10,457.27 346.11,447.00 C343.93,439.51 341.20,433.24 337.60,427.41 L 335.08 423.32 L 338.13 421.06 C340.10,419.61 341.02,418.18 340.72,417.05 C340.47,416.08 332.16,402.29 322.26,386.40 C300.36,351.26 299.99,350.56 300.02,343.79 C300.05,337.22 302.39,331.91 309.36,322.62 C312.29,318.70 318.88,309.65 324.00,302.50 C329.11,295.35 338.84,281.76 345.62,272.29 C365.95,243.89 368.44,237.27 370.05,207.38 C370.62,196.87 370.96,187.73 370.79,187.08 C370.63,186.43 372.84,184.89 375.70,183.66 C378.57,182.43 381.23,181.11 381.62,180.72 C382.38,179.95 380.27,169.70 378.70,166.56 C378.16,165.49 377.36,161.67 376.90,158.06 C376.45,154.45 375.37,148.57 374.51,145.00 C373.65,141.43 372.53,135.57 372.02,132.00 C371.51,128.43 370.67,124.15 370.16,122.50 C369.64,120.85 368.63,116.80 367.92,113.50 C367.21,110.20 366.04,106.06 365.32,104.31 C363.93,100.89 358.31,96.00 355.76,96.00 C354.91,96.00 353.94,95.29 353.61,94.42 C352.60,91.80 352.91,90.75 354.50,91.39 C355.33,91.73 356.67,92.27 357.50,92.61 C358.61,93.06 359.96,91.19 362.70,85.41 C365.82,78.84 366.41,76.56 366.39,71.05 C366.35,60.64 361.10,51.19 353.26,47.44 C348.91,45.35 338.01,44.63 333.32,46.11 C328.99,47.47 323.86,53.40 319.98,61.54 L 316.75 68.30 L 319.13 70.13 C320.43,71.13 321.83,71.97 322.23,71.98 C322.64,71.99 322.69,74.71 322.34,78.03 C321.77,83.44 321.95,84.32 324.03,86.53 C325.30,87.89 326.95,89.00 327.67,89.00 C328.40,89.00 329.93,89.93 331.07,91.07 C333.61,93.61 332.18,96.00 328.13,96.00 C325.16,96.00 315.07,97.89 301.00,101.07 C285.26,104.63 280.04,105.19 274.50,103.89 C267.98,102.37 246.74,94.51 243.23,92.31 C241.73,91.37 240.42,90.58 240.32,90.54 C240.23,90.51 236.29,71.13 231.58,47.49 C226.87,23.85 222.77,3.49 222.49,2.25 L 221.96 -0.00 L 360.98 -0.00 L 500.00 0.00 L 500.00 250.00 L 500.00 500.00 L 250.00 500.00 L 0.00 500.00 L 0.00 250.00 ZM 291.00 436.60 C291.00,434.85 295.88,431.97 314.82,422.52 C330.63,414.64 334.41,413.23 335.41,414.86 C335.78,415.45 329.09,419.24 319.63,423.82 C310.61,428.18 301.18,433.16 298.68,434.88 C293.81,438.23 291.00,438.86 291.00,436.60 ZM 183.62 343.20 C182.48,341.35 184.66,340.90 200.26,339.77 C216.42,338.61 223.00,339.12 223.00,341.55 C223.00,342.74 220.74,343.00 210.25,343.01 C203.24,343.01 194.53,343.30 190.89,343.64 C186.65,344.04 184.05,343.88 183.62,343.20 ZM 190.05 246.57 C186.68,241.67 186.27,240.00 188.45,240.00 C189.93,240.00 196.00,247.98 196.00,249.93 C196.00,252.44 192.87,250.67 190.05,246.57 ZM 354.35 223.75 C349.90,218.99 347.27,214.14 345.54,207.48 C343.46,199.51 343.54,197.00 345.86,197.00 C347.40,197.00 347.81,198.00 348.25,202.82 C348.85,209.49 351.57,215.41 356.54,220.92 C358.44,223.02 360.00,225.25 360.00,225.87 C360.00,227.98 357.40,227.01 354.35,223.75 ZM 236.00 151.96 C222.98,150.66 215.29,148.98 213.54,147.04 C212.03,145.38 212.87,145.10 228.72,141.99 C237.95,140.19 246.29,138.31 247.25,137.82 C248.74,137.06 248.91,136.07 248.35,131.33 L 247.69 125.73 L 251.10 126.49 C252.97,126.90 262.60,127.42 272.50,127.63 C282.40,127.85 292.01,128.36 293.84,128.77 L 297.19 129.52 L 295.09 131.41 C293.89,132.50 293.00,134.54 293.00,136.19 C293.00,138.89 292.17,139.48 279.34,145.78 L 265.67 152.50 L 255.09 152.65 C249.26,152.74 240.68,152.43 236.00,151.96 Z" fill="rgb(254,254,254)"/>
</g>
</svg>